font.ufo
<glyph name="exclam" format="1">
	<unicode hex="0021"/>
	<advance width="600"/>
	<outline>
		<contour>
			<point x="270" y="214" type="line"/>
			<point x="294" y="214" type="line"/>
			<point x="376" y="608" type="line"/>
			<point x="388" y="672" type="line"/>
			<point x="356" y="672" type="line"/>
			<point x="344" y="608" type="line"/>
		</contour>
		<contour>
			<point x="238" y="-12" type="curve" smooth="yes"/>
			<point x="270" y="-12"/>
			<point x="300" y="22"/>
			<point x="300" y="56" type="curve" smooth="yes"/>
			<point x="300" y="84"/>
			<point x="284" y="102"/>
			<point x="258" y="102" type="curve" smooth="yes"/>
			<point x="226" y="102"/>
			<point x="196" y="68"/>
			<point x="196" y="34" type="curve" smooth="yes"/>
			<point x="196" y="6"/>
			<point x="212" y="-12"/>
		</contour>
	</outline>
</glyph>
<glyph name="quotesingle" format="1">
	<unicode hex="0027"/>
	<advance width="600"/>
	<outline>
		<contour>
			<point x="302" y="394" type="line"/>
			<point x="328" y="394" type="line"/>
			<point x="390" y="608" type="line"/>
			<point x="405" y="688" type="line"/>
			<point x="346" y="688" type="line"/>
			<point x="328" y="608" type="line"/>
		</contour>
	</outline>
</glyph>
<glyph name="seven" format="2">
	<unicode hex="0037"/>
	<advance width="600"/>
	<outline>
		<contour>
			<point x="175" y="0" type="curve"/>
			<point x="211" y="0" type="line"/>
			<point x="274" y="265"/>
			<point x="353" y="415"/>
			<point x="566" y="621" type="curve"/>
			<point x="570" y="640" type="line"/>
			<point x="131" y="640" type="line"/>
			<point x="126" y="614" type="line"/>
			<point x="534" y="614" type="line"/>
			<point x="528" y="617" type="line"/>
			<point x="333" y="430"/>
			<point x="245" y="280"/>
		</contour>
	</outline>
</glyph>
<glyph name="nine" format="1">
	<unicode hex="0039"/>
	<advance width="600"/>
	<outline>
		<contour>
			<point x="216" y="-12" type="curve" smooth="yes"/>
			<point x="366" y="-12"/>
			<point x="528" y="122"/>
			<point x="528" y="420" type="curve" smooth="yes"/>
			<point x="528" y="564"/>
			<point x="444" y="652"/>
			<point x="330" y="652" type="curve" smooth="yes"/>
			<point x="202" y="652"/>
			<point x="104" y="552"/>
			<point x="104" y="416" type="curve" smooth="yes"/>
			<point x="104" y="295"/>
			<point x="185" y="246"/>
			<point x="270" y="246" type="curve" smooth="yes"/>
			<point x="374" y="246"/>
			<point x="458" y="306"/>
			<point x="508" y="376" type="curve"/>
			<point x="505" y="406" type="line"/>
			<point x="440" y="322"/>
			<point x="362" y="272"/>
			<point x="272" y="272" type="curve" smooth="yes"/>
			<point x="203" y="272"/>
			<point x="132" y="315"/>
			<point x="132" y="422" type="curve" smooth="yes"/>
			<point x="132" y="532"/>
			<point x="216" y="626"/>
			<point x="328" y="626" type="curve" smooth="yes"/>
			<point x="426" y="626"/>
			<point x="500" y="550"/>
			<point x="500" y="414" type="curve" smooth="yes"/>
			<point x="500" y="138"/>
			<point x="348" y="14"/>
			<point x="218" y="14" type="curve" smooth="yes"/>
			<point x="164" y="14"/>
			<point x="118" y="32"/>
			<point x="80" y="86" type="curve"/>
			<point x="58" y="70" type="line"/>
			<point x="92" y="16"/>
			<point x="150" y="-12"/>
		</contour>
	</outline>
</glyph>
<glyph name="E" format="2">
	<unicode hex="0045"/>
	<advance width="600"/>
	<outline>
		<contour>
			<point x="78" y="0" type="line"/>
			<point x="472" y="0" type="line"/>
			<point x="478" y="26" type="line"/>
			<point x="112" y="26" type="line"/>
			<point x="176" y="338" type="line"/>
			<point x="472" y="338" type="line"/>
			<point x="478" y="364" type="line"/>
			<point x="180" y="364" type="line"/>
			<point x="234" y="634" type="line"/>
			<point x="590" y="634" type="line"/>
			<point x="596" y="660" type="line"/>
			<point x="210" y="660" type="line"/>
		</contour>
	</outline>
	<anchor name="aboveUC" x="418" y="680"/>
	<anchor name="baseLC" x="300" y="0"/>
	<anchor name="belowLC" x="290" y="-20"/>
	<anchor name="ogonekLC" x="294" y="0"/>
	<anchor name="ogonekUC" x="410" y="0"/>
</glyph>
<glyph name="J" format="1">
	<unicode hex="004A"/>
	<advance width="600"/>
	<outline>
		<contour>
			<point x="198" y="-12" type="curve" smooth="yes"/>
			<point x="328" y="-12"/>
			<point x="396" y="62"/>
			<point x="426" y="211" type="curve" smooth="yes"/>
			<point x="516" y="660" type="line"/>
			<point x="196" y="660" type="line"/>
			<point x="190" y="634" type="line"/>
			<point x="480" y="634" type="line"/>
			<point x="396" y="214" type="line" smooth="yes"/>
			<point x="370" y="82"/>
			<point x="310" y="14"/>
			<point x="202" y="14" type="curve" smooth="yes"/>
			<point x="135" y="14"/>
			<point x="90" y="44"/>
			<point x="58" y="98" type="curve"/>
			<point x="36" y="82" type="line"/>
			<point x="63" y="32"/>
			<point x="122" y="-12"/>
		</contour>
		<contour>
			<point name="aboveUC" x="360" y="680" type="move"/>
		</contour>
		<contour>
			<point name="belowLC" x="220" y="-20" type="move"/>
		</contour>
	</outline>
</glyph>
<glyph name="L" format="1">
	<unicode hex="004C"/>
	<advance width="600"/>
	<outline>
		<contour>
			<point x="126" y="0" type="line"/>
			<point x="508" y="0" type="line"/>
			<point x="514" y="26" type="line"/>
			<point x="162" y="26" type="line"/>
			<point x="288" y="660" type="line"/>
			<point x="258" y="660" type="line"/>
		</contour>
		<contour>
			<point name="aboveUC" x="280" y="680" type="move"/>
		</contour>
		<contour>
			<point name="center" x="208" y="330" type="move"/>
		</contour>
		<contour>
			<point name="baseLC" x="330" y="0" type="move"/>
		</contour>
		<contour>
			<point name="belowLC" x="320" y="-20" type="move"/>
		</contour>
	</outline>
</glyph>
<glyph name="W" format="2">
	<unicode hex="0057"/>
	<advance width="600"/>
	<outline>
		<contour>
			<point x="77" y="0" type="line"/>
			<point x="123" y="0" type="line"/>
			<point x="271" y="315" type="line" smooth="yes"/>
			<point x="289" y="354"/>
			<point x="311" y="405"/>
			<point x="321" y="433" type="curve"/>
			<point x="326" y="433" type="line"/>
			<point x="329" y="406"/>
			<point x="334" y="354"/>
			<point x="339" y="316" type="curve" smooth="yes"/>
			<point x="378" y="0" type="line"/>
			<point x="423" y="0" type="line"/>
			<point x="629" y="660" type="line"/>
			<point x="601" y="660" type="line"/>
			<point x="440" y="147" type="line" smooth="yes"/>
			<point x="431" y="117"/>
			<point x="415" y="56"/>
			<point x="407" y="26" type="curve"/>
			<point x="401" y="26" type="line"/>
			<point x="398" y="64"/>
			<point x="387" y="157"/>
			<point x="380" y="210" type="curve" smooth="yes"/>
			<point x="347" y="467" type="line"/>
			<point x="312" y="467" type="line"/>
			<point x="160" y="142" type="line" smooth="yes"/>
			<point x="148" y="117"/>
			<point x="121" y="51"/>
			<point x="108" y="20" type="curve"/>
			<point x="104" y="20" type="line"/>
			<point x="104" y="20"/>
			<point x="108" y="69"/>
			<point x="111" y="140" type="curve" smooth="yes"/>
			<point x="136" y="660" type="line"/>
			<point x="107" y="660" type="line"/>
		</contour>
	</outline>
	<anchor name="aboveUC" x="374" y="680"/>
	<anchor name="belowLC" x="234" y="-20"/>
</glyph>
<glyph name="h" format="1">
	<unicode hex="0068"/>
	<advance width="600"/>
	<outline>
		<contour>
			<point x="52" y="0" type="line"/>
			<point x="80" y="0" type="line"/>
			<point x="146" y="324" type="line"/>
			<point x="228" y="410"/>
			<point x="308" y="464"/>
			<point x="392" y="464" type="curve" smooth="yes"/>
			<point x="456" y="464"/>
			<point x="490" y="430"/>
			<point x="490" y="370" type="curve" smooth="yes"/>
			<point x="490" y="342"/>
			<point x="486" y="318"/>
			<point x="480" y="288" type="curve" smooth="yes"/>
			<point x="422" y="0" type="line"/>
			<point x="450" y="0" type="line"/>
			<point x="508" y="290" type="line" smooth="yes"/>
			<point x="514" y="318"/>
			<point x="518" y="342"/>
			<point x="518" y="374" type="curve" smooth="yes"/>
			<point x="518" y="440"/>
			<point x="484" y="490"/>
			<point x="396" y="490" type="curve" smooth="yes"/>
			<point x="296" y="490"/>
			<point x="224" y="432"/>
			<point x="156" y="368" type="curve"/>
			<point x="152" y="368" type="line"/>
			<point x="162" y="414" type="line"/>
			<point x="224" y="722" type="line"/>
			<point x="196" y="722" type="line"/>
		</contour>
		<contour>
			<point name="aboveUC" x="210" y="740" type="move"/>
		</contour>
		<contour>
			<point name="baseLC" x="66" y="0" type="move"/>
		</contour>
		<contour>
			<point name="belowLC" x="258" y="-20" type="move"/>
		</contour>
	</outline>
</glyph>
<glyph name="x" format="2">
	<unicode hex="0078"/>
	<advance width="600"/>
	<outline>
		<contour>
			<point x="30" y="0" type="line"/>
			<point x="69" y="0" type="line"/>
			<point x="208" y="147" type="line" smooth="yes"/>
			<point x="226" y="166"/>
			<point x="263" y="207"/>
			<point x="281" y="227" type="curve"/>
			<point x="286" y="227" type="line"/>
			<point x="299" y="205"/>
			<point x="321" y="164"/>
			<point x="336" y="139" type="curve" smooth="yes"/>
			<point x="416" y="0" type="line"/>
			<point x="450" y="0" type="line"/>
			<point x="303" y="245" type="line"/>
			<point x="530" y="478" type="line"/>
			<point x="491" y="478" type="line"/>
			<point x="366" y="348" type="line" smooth="yes"/>
			<point x="346" y="327"/>
			<point x="311" y="286"/>
			<point x="292" y="265" type="curve"/>
			<point x="288" y="265" type="line"/>
			<point x="277" y="286"/>
			<point x="257" y="325"/>
			<point x="244" y="348" type="curve" smooth="yes"/>
			<point x="172" y="478" type="line"/>
			<point x="139" y="478" type="line"/>
			<point x="271" y="250" type="line"/>
		</contour>
	</outline>
	<anchor name="aboveLC" x="330" y="500"/>
	<anchor name="baseLC" x="430" y="0"/>
	<anchor name="belowLC" x="240" y="-20"/>
</glyph>
<glyph name="bar" format="1">
	<unicode hex="007C"/>
	<advance width="600"/>
	<outline>
		<contour>
			<point x="286" y="-250" type="line"/>
			<point x="314" y="-250" type="line"/>
			<point x="314" y="750" type="line"/>
			<point x="286" y="750" type="line"/>
		</contour>
	</outline>
</glyph>
<glyph name="asciitilde" format="2">
	<unicode hex="007E"/>
	<advance width="600"/>
	<outline>
		<contour>
			<point x="390" y="270" type="curve" smooth="yes"/>
			<point x="432" y="270"/>
			<point x="475" y="294"/>
			<point x="503" y="378" type="curve"/>
			<point x="480" y="387" type="line"/>
			<point x="454" y="305"/>
			<point x="426" y="297"/>
			<point x="392" y="297" type="curve" smooth="yes"/>
			<point x="334" y="297"/>
			<point x="286" y="390"/>
			<point x="210" y="390" type="curve" smooth="yes"/>
			<point x="168" y="390"/>
			<point x="125" y="366"/>
			<point x="97" y="280" type="curve"/>
			<point x="120" y="273" type="line"/>
			<point x="146" y="353"/>
			<point x="174" y="363"/>
			<point x="208" y="363" type="curve" smooth="yes"/>
			<point x="266" y="363"/>
			<point x="314" y="270"/>
		</contour>
	</outline>
</glyph>
<glyph name="logicalnot" format="1">
	<unicode hex="00AC"/>
	<advance width="600"/>
	<outline>
		<contour>
			<point x="471" y="112" type="line"/>
			<point x="501" y="112" type="line"/>
			<point x="501" y="343" type="line"/>
			<point x="99" y="343" type="line"/>
			<point x="99" y="317" type="line"/>
			<point x="471" y="317" type="line"/>
		</contour>
	</outline>
</glyph>
<glyph name="registered" format="1">
	<unicode hex="00AE"/>
	<advance width="600"/>
	<outline>
		<contour>
			<point x="313" y="326" type="curve" smooth="yes"/>
			<point x="442" y="326"/>
			<point x="534" y="420"/>
			<point x="534" y="555" type="curve" smooth="yes"/>
			<point x="534" y="649"/>
			<point x="473" y="712"/>
			<point x="389" y="712" type="curve" smooth="yes"/>
			<point x="264" y="712"/>
			<point x="166" y="616"/>
			<point x="166" y="482" type="curve" smooth="yes"/>
			<point x="166" y="389"/>
			<point x="228" y="326"/>
		</contour>
		<contour>
			<point x="318" y="351" type="curve" smooth="yes"/>
			<point x="244" y="351"/>
			<point x="192" y="402"/>
			<point x="192" y="487" type="curve" smooth="yes"/>
			<point x="192" y="599"/>
			<point x="279" y="688"/>
			<point x="384" y="688" type="curve" smooth="yes"/>
			<point x="457" y="688"/>
			<point x="508" y="637"/>
			<point x="508" y="549" type="curve" smooth="yes"/>
			<point x="508" y="437"/>
			<point x="427" y="351"/>
		</contour>
		<contour>
			<point x="265" y="418" type="line"/>
			<point x="292" y="418" type="line"/>
			<point x="329" y="610" type="line"/>
			<point x="323" y="604" type="line"/>
			<point x="364" y="604" type="line" smooth="yes"/>
			<point x="396" y="604"/>
			<point x="407" y="590"/>
			<point x="407" y="569" type="curve" smooth="yes"/>
			<point x="407" y="534"/>
			<point x="383" y="518"/>
			<point x="343" y="518" type="curve" smooth="yes"/>
			<point x="302" y="518" type="line"/>
			<point x="294" y="496" type="line"/>
			<point x="346" y="496" type="line" smooth="yes"/>
			<point x="401" y="496"/>
			<point x="435" y="526"/>
			<point x="435" y="570" type="curve" smooth="yes"/>
			<point x="435" y="614"/>
			<point x="404" y="626"/>
			<point x="371" y="626" type="curve" smooth="yes"/>
			<point x="306" y="626" type="line"/>
		</contour>
		<contour>
			<point x="353" y="500" type="line"/>
			<point x="385" y="418" type="line"/>
			<point x="416" y="418" type="line"/>
			<point x="378" y="505" type="line"/>
		</contour>
	</outline>
</glyph>
<glyph name="plusminus" format="1">
	<unicode hex="00B1"/>
	<advance width="600"/>
	<outline>
		<contour>
			<point x="285" y="101" type="line"/>
			<point x="315" y="101" type="line"/>
			<point x="315" y="312" type="line"/>
			<point x="501" y="312" type="line"/>
			<point x="501" y="339" type="line"/>
			<point x="315" y="339" type="line"/>
			<point x="315" y="548" type="line"/>
			<point x="285" y="548" type="line"/>
			<point x="285" y="339" type="line"/>
			<point x="99" y="339" type="line"/>
			<point x="99" y="312" type="line"/>
			<point x="285" y="312" type="line"/>
		</contour>
		<contour>
			<point x="99" y="0" type="line"/>
			<point x="501" y="0" type="line"/>
			<point x="501" y="27" type="line"/>
			<point x="99" y="27" type="line"/>
		</contour>
	</outline>
</glyph>
<glyph name="Oslash" format="1">
	<unicode hex="00D8"/>
	<advance width="600"/>
	<outline>
		<contour>
			<point x="256" y="-12" type="curve" smooth="yes"/>
			<point x="452" y="-12"/>
			<point x="560" y="222"/>
			<point x="560" y="418" type="curve" smooth="yes"/>
			<point x="560" y="566"/>
			<point x="486" y="672"/>
			<point x="354" y="672" type="curve" smooth="yes"/>
			<point x="158" y="672"/>
			<point x="50" y="438"/>
			<point x="50" y="242" type="curve" smooth="yes"/>
			<point x="50" y="94"/>
			<point x="124" y="-12"/>
		</contour>
		<contour>
			<point x="258" y="14" type="curve" smooth="yes"/>
			<point x="138" y="14"/>
			<point x="80" y="110"/>
			<point x="80" y="246" type="curve" smooth="yes"/>
			<point x="80" y="420"/>
			<point x="176" y="646"/>
			<point x="352" y="646" type="curve" smooth="yes"/>
			<point x="472" y="646"/>
			<point x="530" y="550"/>
			<point x="530" y="414" type="curve" smooth="yes"/>
			<point x="530" y="240"/>
			<point x="434" y="14"/>
		</contour>
		<contour>
			<point x="18" y="-20" type="line"/>
			<point x="610" y="664" type="line"/>
			<point x="592" y="680" type="line"/>
			<point x="0" y="-4" type="line"/>
		</contour>
		<contour>
			<point name="aboveUC" x="370" y="680" type="move"/>
		</contour>
		<contour>
			<point name="baseLC" x="238" y="0" type="move"/>
		</contour>
	</outline>
</glyph>
<glyph name="Aogonek" format="1">
	<unicode hex="0104"/>
	<advance width="600"/>
	<outline>
		<contour>
			<point x="430" y="-224" type="curve" smooth="yes"/>
			<point x="462" y="-224"/>
			<point x="486" y="-212"/>
			<point x="504" y="-196" type="curve"/>
			<point x="492" y="-178" type="line"/>
			<point x="476" y="-190"/>
			<point x="458" y="-198"/>
			<point x="436" y="-198" type="curve" smooth="yes"/>
			<point x="400" y="-198"/>
			<point x="372" y="-182"/>
			<point x="372" y="-144" type="curve" smooth="yes"/>
			<point x="372" y="-94"/>
			<point x="428" y="-40"/>
			<point x="488" y="0" type="curve"/>
			<point x="396" y="660" type="line"/>
			<point x="366" y="660" type="line"/>
			<point x="-8" y="0" type="line"/>
			<point x="24" y="0" type="line"/>
			<point x="248" y="400" type="line" smooth="yes"/>
			<point x="290" y="478"/>
			<point x="328" y="548"/>
			<point x="372" y="627" type="curve"/>
			<point x="377" y="627" type="line"/>
			<point x="387" y="553"/>
			<point x="396" y="471"/>
			<point x="406" y="396" type="curve" smooth="yes"/>
			<point x="458" y="0" type="line"/>
			<point x="460" y="0" type="line"/>
			<point x="402" y="-34"/>
			<point x="344" y="-87"/>
			<point x="344" y="-152" type="curve" smooth="yes"/>
			<point x="344" y="-204"/>
			<point x="387" y="-224"/>
		</contour>
		<contour>
			<point x="150" y="238" type="line"/>
			<point x="437" y="238" type="line"/>
			<point x="438" y="264" type="line"/>
			<point x="158" y="264" type="line"/>
		</contour>
		<contour>
			<point name="aboveUC" x="374" y="680" type="move"/>
		</contour>
	</outline>
</glyph>
<glyph name="dcroat" format="1">
	<unicode hex="0111"/>
	<advance width="600"/>
	<outline>
		<contour>
			<point x="236" y="-12" type="curve" smooth="yes"/>
			<point x="304" y="-12"/>
			<point x="372" y="26"/>
			<point x="426" y="78" type="curve"/>
			<point x="430" y="78" type="line"/>
			<point x="418" y="0" type="line"/>
			<point x="442" y="0" type="line"/>
			<point x="588" y="722" type="line"/>
			<point x="560" y="722" type="line"/>
			<point x="512" y="486" type="line"/>
			<point x="492" y="390" type="line"/>
			<point x="488" y="390" type="line"/>
			<point x="458" y="438"/>
			<point x="406" y="470"/>
			<point x="334" y="470" type="curve" smooth="yes"/>
			<point x="182" y="470"/>
			<point x="66" y="328"/>
			<point x="66" y="170" type="curve" smooth="yes"/>
			<point x="66" y="50"/>
			<point x="134" y="-12"/>
		</contour>
		<contour>
			<point x="238" y="14" type="curve" smooth="yes"/>
			<point x="150" y="14"/>
			<point x="94" y="66"/>
			<point x="94" y="176" type="curve" smooth="yes"/>
			<point x="94" y="310"/>
			<point x="198" y="444"/>
			<point x="332" y="444" type="curve" smooth="yes"/>
			<point x="392" y="444"/>
			<point x="442" y="418"/>
			<point x="486" y="352" type="curve"/>
			<point x="438" y="122" type="line"/>
			<point x="374" y="54"/>
			<point x="302" y="14"/>
		</contour>
		<contour>
			<point x="340" y="586" type="line"/>
			<point x="558" y="586" type="line"/>
			<point x="636" y="590" type="line"/>
			<point x="640" y="612" type="line"/>
			<point x="348" y="612" type="line"/>
		</contour>
		<contour>
			<point name="aboveUC" x="570" y="740" type="move"/>
		</contour>
		<contour>
			<point name="belowLC" x="248" y="-20" type="move"/>
		</contour>
	</outline>
</glyph>
<glyph name="Lslash" format="2">
	<unicode hex="0141"/>
	<advance width="600"/>
	<outline>
		<contour>
			<point x="80" y="218" type="line"/>
			<point x="186" y="267" type="line"/>
			<point x="199" y="271" type="line"/>
			<point x="470" y="398" type="line"/>
			<point x="460" y="422" type="line"/>
			<point x="205" y="301" type="line"/>
			<point x="192" y="297" type="line"/>
			<point x="70" y="242" type="line"/>
		</contour>
		<component base="L"/>
	</outline>
	<anchor name="aboveUC" x="280" y="680"/>
	<anchor name="belowLC" x="320" y="-20"/>
</glyph>
<glyph name="Uogonek" format="1">
	<unicode hex="0172"/>
	<advance width="600"/>
	<outline>
		<contour>
			<point x="210" y="-224" type="curve" smooth="yes"/>
			<point x="242" y="-224"/>
			<point x="266" y="-212"/>
			<point x="284" y="-196" type="curve"/>
			<point x="272" y="-178" type="line"/>
			<point x="256" y="-190"/>
			<point x="238" y="-198"/>
			<point x="216" y="-198" type="curve" smooth="yes"/>
			<point x="180" y="-198"/>
			<point x="152" y="-182"/>
			<point x="152" y="-144" type="curve" smooth="yes"/>
			<point x="152" y="-98"/>
			<point x="202" y="-28"/>
			<point x="308" y="-6" type="curve" smooth="yes"/>
			<point x="394" y="12"/>
			<point x="462" y="80"/>
			<point x="492" y="230" type="curve" smooth="yes"/>
			<point x="578" y="660" type="line"/>
			<point x="548" y="660" type="line"/>
			<point x="464" y="238" type="line" smooth="yes"/>
			<point x="432" y="76"/>
			<point x="350" y="14"/>
			<point x="264" y="14" type="curve" smooth="yes"/>
			<point x="158" y="14"/>
			<point x="104" y="78"/>
			<point x="104" y="188" type="curve" smooth="yes"/>
			<point x="104" y="212"/>
			<point x="106" y="238"/>
			<point x="114" y="270" type="curve" smooth="yes"/>
			<point x="192" y="660" type="line"/>
			<point x="162" y="660" type="line"/>
			<point x="82" y="262" type="line" smooth="yes"/>
			<point x="76" y="230"/>
			<point x="74" y="206"/>
			<point x="74" y="180" type="curve" smooth="yes"/>
			<point x="74" y="60"/>
			<point x="139" y="4"/>
			<point x="222" y="-10" type="curve"/>
			<point x="172" y="-42"/>
			<point x="124" y="-96"/>
			<point x="124" y="-152" type="curve" smooth="yes"/>
			<point x="124" y="-204"/>
			<point x="167" y="-224"/>
		</contour>
		<contour>
			<point name="aboveUC" x="374" y="683" type="move"/>
		</contour>
	</outline>
</glyph>
<glyph name="uogonek" format="1">
	<unicode hex="0173"/>
	<advance width="600"/>
	<outline>
		<contour>
			<point x="372" y="-224" type="curve" smooth="yes"/>
			<point x="404" y="-224"/>
			<point x="428" y="-212"/>
			<point x="446" y="-196" type="curve"/>
			<point x="434" y="-178" type="line"/>
			<point x="418" y="-190"/>
			<point x="400" y="-198"/>
			<point x="378" y="-198" type="curve" smooth="yes"/>
			<point x="342" y="-198"/>
			<point x="314" y="-182"/>
			<point x="314" y="-144" type="curve" smooth="yes"/>
			<point x="314" y="-94"/>
			<point x="362" y="-50"/>
			<point x="438" y="-8" type="curve"/>
			<point x="536" y="478" type="line"/>
			<point x="508" y="478" type="line"/>
			<point x="442" y="154" type="line"/>
			<point x="360" y="68"/>
			<point x="280" y="14"/>
			<point x="196" y="14" type="curve" smooth="yes"/>
			<point x="132" y="14"/>
			<point x="98" y="48"/>
			<point x="98" y="108" type="curve" smooth="yes"/>
			<point x="98" y="136"/>
			<point x="102" y="160"/>
			<point x="108" y="190" type="curve" smooth="yes"/>
			<point x="166" y="478" type="line"/>
			<point x="138" y="478" type="line"/>
			<point x="80" y="188" type="line" smooth="yes"/>
			<point x="74" y="160"/>
			<point x="70" y="136"/>
			<point x="70" y="104" type="curve" smooth="yes"/>
			<point x="70" y="38"/>
			<point x="104" y="-12"/>
			<point x="193" y="-12" type="curve" smooth="yes"/>
			<point x="292" y="-12"/>
			<point x="364" y="46"/>
			<point x="430" y="110" type="curve"/>
			<point x="434" y="110" type="line"/>
			<point x="416" y="0" type="line"/>
			<point x="344" y="-38"/>
			<point x="286" y="-84"/>
			<point x="286" y="-152" type="curve" smooth="yes"/>
			<point x="286" y="-204"/>
			<point x="329" y="-224"/>
		</contour>
		<contour>
			<point name="aboveLC" x="338" y="500" type="move"/>
		</contour>
	</outline>
</glyph>
<glyph name="Oogonek" format="1">
	<unicode hex="01EA"/>
	<advance width="600"/>
	<outline>
		<contour>
			<point x="210" y="-224" type="curve" smooth="yes"/>
			<point x="242" y="-224"/>
			<point x="266" y="-212"/>
			<point x="284" y="-196" type="curve"/>
			<point x="272" y="-178" type="line"/>
			<point x="256" y="-190"/>
			<point x="238" y="-198"/>
			<point x="216" y="-198" type="curve" smooth="yes"/>
			<point x="180" y="-198"/>
			<point x="152" y="-182"/>
			<point x="152" y="-144" type="curve" smooth="yes"/>
			<point x="152" y="-106"/>
			<point x="198" y="-29"/>
			<point x="299" y="-8" type="curve" smooth="yes"/>
			<point x="462" y="26"/>
			<point x="560" y="222"/>
			<point x="560" y="418" type="curve" smooth="yes"/>
			<point x="560" y="566"/>
			<point x="486" y="672"/>
			<point x="354" y="672" type="curve" smooth="yes"/>
			<point x="158" y="672"/>
			<point x="50" y="438"/>
			<point x="50" y="242" type="curve" smooth="yes"/>
			<point x="50" y="84"/>
			<point x="132" y="-2"/>
			<point x="228" y="-10" type="curve"/>
			<point x="172" y="-40"/>
			<point x="124" y="-96"/>
			<point x="124" y="-152" type="curve" smooth="yes"/>
			<point x="124" y="-204"/>
			<point x="167" y="-224"/>
		</contour>
		<contour>
			<point x="258" y="14" type="curve" smooth="yes"/>
			<point x="138" y="14"/>
			<point x="80" y="110"/>
			<point x="80" y="246" type="curve" smooth="yes"/>
			<point x="80" y="420"/>
			<point x="176" y="646"/>
			<point x="352" y="646" type="curve" smooth="yes"/>
			<point x="472" y="646"/>
			<point x="530" y="550"/>
			<point x="530" y="414" type="curve" smooth="yes"/>
			<point x="530" y="240"/>
			<point x="434" y="14"/>
		</contour>
		<contour>
			<point name="aboveUC" x="374" y="680" type="move"/>
		</contour>
	</outline>
</glyph>
<glyph name="aturned" format="1">
	<unicode hex="0250"/>
	<advance width="600"/>
	<outline>
		<component base="a.a" xScale="-1" yScale="-1" xOffset="580" yOffset="478"/>
		<contour>
			<point name="aboveLC" x="340" y="500" type="move"/>
		</contour>
		<contour>
			<point name="belowLC" x="240" y="-20" type="move"/>
		</contour>
	</outline>
</glyph>
<glyph name="dtail" format="1">
	<unicode hex="0256"/>
	<advance width="600"/>
	<outline>
		<contour>
			<point x="465" y="-180" type="curve" smooth="yes"/>
			<point x="481" y="-180"/>
			<point x="504" y="-174"/>
			<point x="515" y="-168" type="curve"/>
			<point x="512" y="-142" type="line"/>
			<point x="502" y="-146"/>
			<point x="484" y="-152"/>
			<point x="468" y="-152" type="curve" smooth="yes"/>
			<point x="436" y="-152"/>
			<point x="424" y="-134"/>
			<point x="424" y="-104" type="curve" smooth="yes"/>
			<point x="424" y="-88"/>
			<point x="428" y="-70"/>
			<point x="432" y="-50" type="curve" smooth="yes"/>
			<point x="588" y="723" type="line"/>
			<point x="560" y="723" type="line"/>
			<point x="516" y="507" type="line"/>
			<point x="496" y="411" type="line"/>
			<point x="492" y="411" type="line"/>
			<point x="462" y="459"/>
			<point x="406" y="490"/>
			<point x="334" y="490" type="curve" smooth="yes"/>
			<point x="180" y="490"/>
			<point x="66" y="338"/>
			<point x="66" y="170" type="curve" smooth="yes"/>
			<point x="66" y="50"/>
			<point x="134" y="-12"/>
			<point x="236" y="-12" type="curve" smooth="yes"/>
			<point x="304" y="-12"/>
			<point x="372" y="27"/>
			<point x="426" y="79" type="curve"/>
			<point x="430" y="80" type="line"/>
			<point x="416" y="14"/>
			<point x="396" y="-64"/>
			<point x="396" y="-110" type="curve" smooth="yes"/>
			<point x="396" y="-159"/>
			<point x="418" y="-180"/>
		</contour>
		<contour>
			<point x="238" y="14" type="curve" smooth="yes"/>
			<point x="150" y="14"/>
			<point x="94" y="66"/>
			<point x="94" y="176" type="curve" smooth="yes"/>
			<point x="94" y="320"/>
			<point x="196" y="464"/>
			<point x="332" y="464" type="curve" smooth="yes"/>
			<point x="392" y="464"/>
			<point x="446" y="439"/>
			<point x="490" y="373" type="curve"/>
			<point x="438" y="123" type="line"/>
			<point x="374" y="55"/>
			<point x="302" y="14"/>
		</contour>
		<contour>
			<point name="aboveUC" x="570" y="740" type="move"/>
		</contour>
		<contour>
			<point name="belowLC" x="248" y="-20" type="move"/>
		</contour>
	</outline>
</glyph>
<glyph name="dotlessjstroke" format="1">
	<unicode hex="025F"/>
	<advance width="600"/>
	<outline>
		<contour>
			<point x="142" y="238" type="line"/>
			<point x="560" y="238" type="line"/>
			<point x="564" y="264" type="line"/>
			<point x="350" y="264" type="line"/>
			<point x="146" y="260" type="line"/>
		</contour>
		<component base="dotlessj"/>
		<contour>
			<point name="aboveLC" x="390" y="500" type="move"/>
		</contour>
		<contour>
			<point name="belowLC" x="130" y="-230" type="move"/>
		</contour>
	</outline>
</glyph>
<glyph name="istroke" format="1">
	<unicode hex="0268"/>
	<advance width="600"/>
	<outline>
		<component base="istroke.d"/>
		<component base="dotaccentcmb" xOffset="-18"/>
		<contour>
			<point name="baseLC" x="360" y="0" type="move"/>
		</contour>
		<contour>
			<point name="belowLC" x="350" y="-20" type="move"/>
		</contour>
	</outline>
</glyph>
<glyph name="ismall" format="1">
	<unicode hex="026A"/>
	<advance width="600"/>
	<outline>
		<contour>
			<point x="50" y="0" type="line"/>
			<point x="424" y="0" type="line"/>
			<point x="430" y="26" type="line"/>
			<point x="256" y="26" type="line"/>
			<point x="342" y="452" type="line"/>
			<point x="516" y="452" type="line"/>
			<point x="522" y="478" type="line"/>
			<point x="146" y="478" type="line"/>
			<point x="140" y="452" type="line"/>
			<point x="312" y="452" type="line"/>
			<point x="226" y="26" type="line"/>
			<point x="56" y="26" type="line"/>
		</contour>
		<contour>
			<point name="aboveLC" x="338" y="500" type="move"/>
		</contour>
		<contour>
			<point name="belowLC" x="234" y="-20" type="move"/>
		</contour>
	</outline>
</glyph>
<glyph name="lbelt" format="1">
	<unicode hex="026C"/>
	<advance width="600"/>
	<outline>
		<contour>
			<point x="225" y="342" type="curve" smooth="yes"/>
			<point x="436" y="342" type="line"/>
			<point x="442" y="368" type="line"/>
			<point x="219" y="368" type="line" smooth="yes"/>
			<point x="168" y="368"/>
			<point x="142" y="388"/>
			<point x="142" y="414" type="curve" smooth="yes"/>
			<point x="142" y="438"/>
			<point x="160" y="452"/>
			<point x="188" y="452" type="curve" smooth="yes"/>
			<point x="232" y="452"/>
			<point x="266" y="410"/>
			<point x="262" y="368" type="curve"/>
			<point x="282" y="360" type="line"/>
			<point x="286" y="432"/>
			<point x="244" y="478"/>
			<point x="186" y="478" type="curve" smooth="yes"/>
			<point x="142" y="478"/>
			<point x="114" y="450"/>
			<point x="114" y="414" type="curve" smooth="yes"/>
			<point x="114" y="372"/>
			<point x="150" y="342"/>
		</contour>
		<component base="l"/>
		<contour>
			<point name="aboveUC" x="344" y="740" type="move"/>
		</contour>
		<contour>
			<point name="belowLC" x="330" y="-20" type="move"/>
		</contour>
	</outline>
</glyph>
<glyph name="lretroflex" format="1">
	<unicode hex="026D"/>
	<advance width="600"/>
	<outline>
		<contour>
			<point x="290" y="-180" type="curve" smooth="yes"/>
			<point x="332" y="-180"/>
			<point x="374" y="-168"/>
			<point x="411" y="-148" type="curve"/>
			<point x="400" y="-124" type="line"/>
			<point x="362" y="-144"/>
			<point x="328" y="-154"/>
			<point x="294" y="-154" type="curve" smooth="yes"/>
			<point x="240" y="-154"/>
			<point x="208" y="-128"/>
			<point x="208" y="-68" type="curve" smooth="yes"/>
			<point x="208" y="-54"/>
			<point x="210" y="-36"/>
			<point x="214" y="-18" type="curve" smooth="yes"/>
			<point x="362" y="722" type="line"/>
			<point x="158" y="722" type="line"/>
			<point x="152" y="696" type="line"/>
			<point x="330" y="696" type="line"/>
			<point x="184" y="-26" type="line" smooth="yes"/>
			<point x="180" y="-44"/>
			<point x="178" y="-58"/>
			<point x="178" y="-72" type="curve" smooth="yes"/>
			<point x="178" y="-146"/>
			<point x="226" y="-180"/>
		</contour>
		<contour>
			<point name="aboveUC" x="344" y="740" type="move"/>
		</contour>
		<contour>
			<point name="belowLC" x="280" y="-180" type="move"/>
		</contour>
	</outline>
</glyph>
<glyph name="nsmall" format="2">
	<unicode hex="0274"/>
	<advance width="600"/>
	<outline>
		<contour>
			<point x="72" y="0" type="line"/>
			<point x="102" y="0" type="line"/>
			<point x="151" y="254" type="line" smooth="yes"/>
			<point x="162" y="307"/>
			<point x="172" y="368"/>
			<point x="182" y="432" type="curve"/>
			<point x="186" y="432" type="line"/>
			<point x="200" y="402"/>
			<point x="216" y="358"/>
			<point x="230" y="328" type="curve" smooth="yes"/>
			<point x="378" y="0" type="line"/>
			<point x="408" y="0" type="line"/>
			<point x="501" y="478" type="line"/>
			<point x="471" y="478" type="line"/>
			<point x="422" y="224" type="line" smooth="yes"/>
			<point x="411" y="171"/>
			<point x="401" y="110"/>
			<point x="391" y="46" type="curve"/>
			<point x="387" y="46" type="line"/>
			<point x="373" y="76"/>
			<point x="357" y="120"/>
			<point x="343" y="150" type="curve" smooth="yes"/>
			<point x="196" y="478" type="line"/>
			<point x="165" y="478" type="line"/>
		</contour>
	</outline>
	<anchor name="aboveLC" x="330" y="500"/>
	<anchor name="belowLC" x="240" y="-20"/>
</glyph>
<glyph name="rturned" format="1">
	<unicode hex="0279"/>
	<advance width="600"/>
	<outline>
		<component base="r" xScale="-1" yScale="-1" xOffset="586" yOffset="478"/>
		<contour>
			<point name="aboveLC" x="450" y="500" type="move"/>
		</contour>
		<contour>
			<point name="belowLC" x="210" y="-20" type="move"/>
		</contour>
	</outline>
</glyph>
<glyph name="rfishhook" format="1">
	<unicode hex="027E"/>
	<advance width="600"/>
	<outline>
		<contour>
			<point x="116" y="0" type="line"/>
			<point x="144" y="0" type="line"/>
			<point x="200" y="282" type="line" smooth="yes"/>
			<point x="224" y="404"/>
			<point x="290" y="462"/>
			<point x="402" y="462" type="curve" smooth="yes"/>
			<point x="430" y="462"/>
			<point x="491" y="460"/>
			<point x="524" y="438" type="curve"/>
			<point x="540" y="462" type="line"/>
			<point x="506" y="482"/>
			<point x="440" y="490"/>
			<point x="409" y="490" type="curve" smooth="yes"/>
			<point x="278" y="490"/>
			<point x="202" y="428"/>
			<point x="174" y="290" type="curve" smooth="yes"/>
		</contour>
		<contour>
			<point name="aboveLC" x="374" y="500" type="move"/>
		</contour>
		<contour>
			<point name="belowLC" x="130" y="-20" type="move"/>
		</contour>
	</outline>
</glyph>
<glyph name="upsilonlatin" format="1">
	<unicode hex="028A"/>
	<advance width="600"/>
	<outline>
		<contour>
			<point x="238" y="-12" type="curve" smooth="yes"/>
			<point x="394" y="-12"/>
			<point x="494" y="134"/>
			<point x="494" y="284" type="curve" smooth="yes"/>
			<point x="494" y="360"/>
			<point x="462" y="416"/>
			<point x="432" y="450" type="curve"/>
			<point x="432" y="452" type="line"/>
			<point x="547" y="452" type="line"/>
			<point x="553" y="478" type="line"/>
			<point x="392" y="478" type="line"/>
			<point x="388" y="460" type="line"/>
			<point x="432" y="424"/>
			<point x="466" y="365"/>
			<point x="466" y="278" type="curve" smooth="yes"/>
			<point x="466" y="153"/>
			<point x="378" y="14"/>
			<point x="240" y="14" type="curve" smooth="yes"/>
			<point x="146" y="14"/>
			<point x="100" y="85"/>
			<point x="100" y="172" type="curve" smooth="yes"/>
			<point x="100" y="291"/>
			<point x="182" y="408"/>
			<point x="270" y="460" type="curve"/>
			<point x="274" y="478" type="line"/>
			<point x="114" y="478" type="line"/>
			<point x="108" y="452" type="line"/>
			<point x="218" y="452" type="line"/>
			<point x="218" y="450" type="line"/>
			<point x="154" y="402"/>
			<point x="72" y="292"/>
			<point x="72" y="164" type="curve" smooth="yes"/>
			<point x="72" y="66"/>
			<point x="126" y="-12"/>
		</contour>
		<contour>
			<point name="aboveLC" x="338" y="500" type="move"/>
		</contour>
		<contour>
			<point name="belowLC" x="236" y="-20" type="move"/>
		</contour>
	</outline>
</glyph>
<glyph name="zcurl" format="2">
	<unicode hex="0291"/>
	<advance width="600"/>
	<outline>
		<contour>
			<point x="270" y="-122" type="line"/>
			<point x="342" y="74"/>
			<point x="416" y="152"/>
			<point x="480" y="152" type="curve" smooth="yes"/>
			<point x="510" y="152"/>
			<point x="524" y="136"/>
			<point x="524" y="114" type="curve" smooth="yes"/>
			<point x="524" y="70"/>
			<point x="484" y="26"/>
			<point x="378" y="26" type="curve" smooth="yes"/>
			<point x="288" y="26"/>
			<point x="184" y="26"/>
			<point x="90" y="26" type="curve"/>
			<point x="520" y="460" type="line"/>
			<point x="522" y="478" type="line"/>
			<point x="130" y="478" type="line"/>
			<point x="124" y="452" type="line"/>
			<point x="476" y="452" type="line"/>
			<point x="46" y="18" type="line"/>
			<point x="44" y="0" type="line"/>
			<point x="376" y="0" type="line" smooth="yes"/>
			<point x="504" y="0"/>
			<point x="552" y="56"/>
			<point x="552" y="120" type="curve" smooth="yes"/>
			<point x="552" y="152"/>
			<point x="527" y="178"/>
			<point x="482" y="178" type="curve" smooth="yes"/>
			<point x="404" y="178"/>
			<point x="326" y="92"/>
			<point x="246" y="-114" type="curve"/>
		</contour>
	</outline>
	<anchor name="aboveLC" x="330" y="500"/>
</glyph>
<glyph name="glottalstopreversed" format="1">
	<unicode hex="0295"/>
	<advance width="600"/>
	<outline>
		<contour>
			<point x="248" y="0" type="line"/>
			<point x="276" y="0" type="line"/>
			<point x="340" y="314" type="line"/>
			<point x="242" y="372"/>
			<point x="196" y="435"/>
			<point x="196" y="526" type="curve" smooth="yes"/>
			<point x="196" y="630"/>
			<point x="270" y="708"/>
			<point x="386" y="708" type="curve" smooth="yes"/>
			<point x="458" y="708"/>
			<point x="510" y="670"/>
			<point x="546" y="616" type="curve"/>
			<point x="568" y="630" type="line"/>
			<point x="532" y="688"/>
			<point x="472" y="734"/>
			<point x="388" y="734" type="curve" smooth="yes"/>
			<point x="256" y="734"/>
			<point x="168" y="648"/>
			<point x="168" y="520" type="curve" smooth="yes"/>
			<point x="168" y="423"/>
			<point x="224" y="354"/>
			<point x="308" y="298" type="curve"/>
		</contour>
		<contour>
			<point name="aboveUC" x="400" y="740" type="move"/>
		</contour>
		<contour>
			<point name="belowLC" x="260" y="-20" type="move"/>
		</contour>
	</outline>
</glyph>
<glyph name="bsmall" format="2">
	<unicode hex="0299"/>
	<advance width="600"/>
	<outline>
		<contour>
			<point x="90" y="0" type="line"/>
			<point x="262" y="0" type="line" smooth="yes"/>
			<point x="410" y="0"/>
			<point x="468" y="71"/>
			<point x="468" y="162" type="curve" smooth="yes"/>
			<point x="468" y="218"/>
			<point x="428" y="242"/>
			<point x="390" y="253" type="curve"/>
			<point x="391" y="256" type="line"/>
			<point x="442" y="270"/>
			<point x="490" y="308"/>
			<point x="490" y="384" type="curve" smooth="yes"/>
			<point x="490" y="449"/>
			<point x="432" y="478"/>
			<point x="351" y="478" type="curve" smooth="yes"/>
			<point x="186" y="478" type="line"/>
		</contour>
		<contour>
			<point x="124" y="26" type="line"/>
			<point x="168" y="242" type="line"/>
			<point x="292" y="242" type="line" smooth="yes"/>
			<point x="390" y="242"/>
			<point x="440" y="210"/>
			<point x="440" y="156" type="curve" smooth="yes"/>
			<point x="440" y="80"/>
			<point x="384" y="26"/>
			<point x="257" y="26" type="curve" smooth="yes"/>
		</contour>
		<contour>
			<point x="172" y="268" type="line"/>
			<point x="210" y="452" type="line"/>
			<point x="336" y="452" type="line" smooth="yes"/>
			<point x="422" y="452"/>
			<point x="462" y="424"/>
			<point x="462" y="378" type="curve" smooth="yes"/>
			<point x="462" y="316"/>
			<point x="417" y="268"/>
			<point x="292" y="268" type="curve" smooth="yes"/>
		</contour>
	</outline>
	<anchor name="aboveLC" x="340" y="500"/>
	<anchor name="belowLC" x="270" y="-20"/>
</glyph>
<glyph name="lsmall" format="1">
	<unicode hex="029F"/>
	<advance width="600"/>
	<outline>
		<contour>
			<point x="128" y="0" type="line"/>
			<point x="480" y="0" type="line"/>
			<point x="486" y="26" type="line"/>
			<point x="162" y="26" type="line"/>
			<point x="252" y="478" type="line"/>
			<point x="224" y="478" type="line"/>
		</contour>
		<contour>
			<point name="aboveLC" x="240" y="500" type="move"/>
		</contour>
		<contour>
			<point name="belowLC" x="310" y="-20" type="move"/>
		</contour>
	</outline>
</glyph>
<glyph name="ts" format="2">
	<unicode hex="02A6"/>
	<advance width="600"/>
	<outline>
		<contour>
			<point x="260" y="-12" type="curve" smooth="yes"/>
			<point x="446" y="-12"/>
			<point x="512" y="54"/>
			<point x="512" y="146" type="curve" smooth="yes"/>
			<point x="512" y="283"/>
			<point x="350" y="274"/>
			<point x="350" y="380" type="curve" smooth="yes"/>
			<point x="350" y="424"/>
			<point x="390" y="464"/>
			<point x="446" y="464" type="curve" smooth="yes"/>
			<point x="488" y="464"/>
			<point x="514" y="444"/>
			<point x="538" y="420" type="curve"/>
			<point x="556" y="440" type="line"/>
			<point x="528" y="470"/>
			<point x="492" y="490"/>
			<point x="448" y="490" type="curve" smooth="yes"/>
			<point x="381" y="490"/>
			<point x="322" y="446"/>
			<point x="322" y="374" type="curve" smooth="yes"/>
			<point x="322" y="254"/>
			<point x="484" y="267"/>
			<point x="484" y="140" type="curve" smooth="yes"/>
			<point x="484" y="76"/>
			<point x="426" y="14"/>
			<point x="262" y="14" type="curve" smooth="yes"/>
			<point x="147" y="14"/>
			<point x="108" y="52"/>
			<point x="108" y="116" type="curve" smooth="yes"/>
			<point x="108" y="136"/>
			<point x="111" y="148"/>
			<point x="114" y="162" type="curve" smooth="yes"/>
			<point x="174" y="452" type="line"/>
			<point x="396" y="452" type="line"/>
			<point x="402" y="478" type="line"/>
			<point x="180" y="478" type="line"/>
			<point x="212" y="638" type="line"/>
			<point x="188" y="638" type="line"/>
			<point x="152" y="478" type="line"/>
			<point x="74" y="474" type="line"/>
			<point x="70" y="452" type="line"/>
			<point x="146" y="452" type="line"/>
			<point x="86" y="164" type="line" smooth="yes"/>
			<point x="84" y="154"/>
			<point x="80" y="132"/>
			<point x="80" y="110" type="curve" smooth="yes"/>
			<point x="80" y="36"/>
			<point x="127" y="-12"/>
		</contour>
	</outline>
	<anchor name="aboveLC" x="340" y="630"/>
	<anchor name="belowLC" x="280" y="-20"/>
</glyph>
<glyph name="colontriangularhalfmod" format="1">
	<unicode hex="02D1"/>
	<advance width="600"/>
	<outline>
		<contour>
			<point x="304" y="374" type="line"/>
			<point x="312" y="374" type="line"/>
			<point x="388" y="478" type="line"/>
			<point x="274" y="478" type="line"/>
		</contour>
	</outline>
</glyph>
<glyph name="overlinecmb" format="1">
	<unicode hex="0305"/>
	<advance width="600"/>
	<outline>
		<component base="macroncmb"/>
		<contour>
			<point name="_aboveLC" x="338" y="500" type="move"/>
		</contour>
		<contour>
			<point name="aboveLC" x="358" y="600" type="move"/>
		</contour>
	</outline>
</glyph>
<glyph name="dblgravecmb" format="1">
	<unicode hex="030F"/>
	<advance width="600"/>
	<outline>
		<contour>
			<point x="268" y="568" type="line"/>
			<point x="290" y="576" type="line"/>
			<point x="234" y="748" type="line"/>
			<point x="204" y="734" type="line"/>
		</contour>
		<contour>
			<point x="396" y="568" type="line"/>
			<point x="418" y="576" type="line"/>
			<point x="362" y="748" type="line"/>
			<point x="332" y="734" type="line"/>
		</contour>
		<contour>
			<point name="_aboveLC" x="338" y="500" type="move"/>
		</contour>
	</outline>
</glyph>
<glyph name="candrabinducmb" format="2">
	<unicode hex="0310"/>
	<advance width="600"/>
	<outline>
		<contour>
			<point x="354" y="570" type="curve" smooth="yes"/>
			<point x="456" y="570"/>
			<point x="510" y="654"/>
			<point x="528" y="716" type="curve"/>
			<point x="502" y="720" type="line"/>
			<point x="482" y="662"/>
			<point x="434" y="596"/>
			<point x="360" y="596" type="curve" smooth="yes"/>
			<point x="285" y="596"/>
			<point x="258" y="662"/>
			<point x="262" y="720" type="curve"/>
			<point x="236" y="716" type="line"/>
			<point x="234" y="654"/>
			<point x="256" y="570"/>
		</contour>
		<contour>
			<point x="380" y="700" type="curve" smooth="yes"/>
			<point x="402" y="700"/>
			<point x="424" y="722"/>
			<point x="424" y="748" type="curve" smooth="yes"/>
			<point x="424" y="768"/>
			<point x="412" y="782"/>
			<point x="390" y="782" type="curve" smooth="yes"/>
			<point x="368" y="782"/>
			<point x="346" y="760"/>
			<point x="346" y="734" type="curve" smooth="yes"/>
			<point x="346" y="714"/>
			<point x="358" y="700"/>
		</contour>
	</outline>
	<anchor name="_aboveLC" x="338" y="500"/>
</glyph>
<glyph name="uptackbelowcmb" format="2">
	<unicode hex="031D"/>
	<advance width="600"/>
	<outline>
		<contour>
			<point x="114" y="-196" type="line"/>
			<point x="286" y="-196" type="line"/>
			<point x="291" y="-168" type="line"/>
			<point x="219" y="-168" type="line"/>
			<point x="240" y="-62" type="line"/>
			<point x="212" y="-62" type="line"/>
			<point x="191" y="-168" type="line"/>
			<point x="119" y="-168" type="line"/>
		</contour>
	</outline>
	<anchor name="_belowLC" x="234" y="-20"/>
</glyph>
<glyph name="minusbelowcmb" format="1">
	<unicode hex="0320"/>
	<advance width="600"/>
	<outline>
		<contour>
			<point x="120" y="-166" type="line"/>
			<point x="292" y="-166" type="line"/>
			<point x="297" y="-138" type="line"/>
			<point x="125" y="-138" type="line"/>
		</contour>
		<contour>
			<point name="_belowLC" x="234" y="-20" type="move"/>
		</contour>
	</outline>
</glyph>
<glyph name="commabelowcmb" format="1">
	<unicode hex="0326"/>
	<advance width="600"/>
	<outline>
		<contour>
			<point x="118" y="-216" type="line"/>
			<point x="208" y="-214"/>
			<point x="270" y="-181"/>
			<point x="270" y="-124" type="curve" smooth="yes"/>
			<point x="270" y="-89"/>
			<point x="254" y="-72"/>
			<point x="182" y="-62" type="curve"/>
			<point x="172" y="-86" type="line"/>
			<point x="217" y="-90"/>
			<point x="240" y="-102"/>
			<point x="240" y="-132" type="curve" smooth="yes"/>
			<point x="240" y="-165"/>
			<point x="198" y="-190"/>
			<point x="116" y="-192" type="curve"/>
		</contour>
		<contour>
			<point name="_belowLC" x="234" y="-20" type="move"/>
		</contour>
	</outline>
</glyph>
<glyph name="verticallinebelowcmb" format="2">
	<unicode hex="0329"/>
	<advance width="600"/>
	<outline>
		<contour>
			<point x="171" y="-264" type="line"/>
			<point x="203" y="-264" type="line"/>
			<point x="233" y="-76" type="line"/>
			<point x="213" y="-76" type="line"/>
		</contour>
	</outline>
	<anchor name="_belowLC" x="234" y="-20"/>
</glyph>
<glyph name="caronbelowcmb" format="1">
	<unicode hex="032C"/>
	<advance width="600"/>
	<outline>
		<component base="caroncmb" xOffset="-156" yOffset="-804"/>
		<contour>
			<point name="_belowLC" x="234" y="-20" type="move"/>
		</contour>
	</outline>
</glyph>
<glyph name="tildeoverlaycmb" format="1">
	<unicode hex="0334"/>
	<advance width="600"/>
	<outline>
		<contour>
			<point x="350" y="176" type="curve" smooth="yes"/>
			<point x="411" y="176"/>
			<point x="438" y="242"/>
			<point x="452" y="298" type="curve"/>
			<point x="426" y="300" type="line"/>
			<point x="414" y="247"/>
			<point x="392" y="200"/>
			<point x="354" y="200" type="curve" smooth="yes"/>
			<point x="295" y="200"/>
			<point x="293" y="302"/>
			<point x="222" y="302" type="curve" smooth="yes"/>
			<point x="161" y="302"/>
			<point x="134" y="238"/>
			<point x="120" y="180" type="curve"/>
			<point x="146" y="178" type="line"/>
			<point x="158" y="233"/>
			<point x="180" y="278"/>
			<point x="218" y="278" type="curve" smooth="yes"/>
			<point x="277" y="278"/>
			<point x="279" y="176"/>
		</contour>
		<contour>
			<point name="_center" x="286" y="240" type="move"/>
		</contour>
	</outline>
</glyph>
<glyph name="ringhalfrightbelowcmb" format="1">
	<unicode hex="0339"/>
	<advance width="600"/>
	<outline>
		<contour>
			<point x="146" y="-262" type="line"/>
			<point x="212" y="-262"/>
			<point x="268" y="-224"/>
			<point x="268" y="-158" type="curve" smooth="yes"/>
			<point x="268" y="-103"/>
			<point x="224" y="-78"/>
			<point x="182" y="-80" type="curve"/>
			<point x="178" y="-102" type="line"/>
			<point x="216" y="-102"/>
			<point x="244" y="-118"/>
			<point x="244" y="-160" type="curve" smooth="yes"/>
			<point x="244" y="-208"/>
			<point x="204" y="-238"/>
			<point x="150" y="-240" type="curve"/>
		</contour>
		<contour>
			<point name="_belowLC" x="234" y="-20" type="move"/>
		</contour>
	</outline>
</glyph>
<glyph name="iotasubscriptcmb" format="2">
	<unicode hex="0345"/>
	<advance width="600"/>
	<outline>
		<contour>
			<point x="238" y="-188" type="curve" smooth="yes"/>
			<point x="255" y="-188"/>
			<point x="260" y="-186"/>
			<point x="273" y="-182" type="curve"/>
			<point x="272" y="-156" type="line"/>
			<point x="255" y="-160"/>
			<point x="251" y="-160"/>
			<point x="245" y="-160" type="curve" smooth="yes"/>
			<point x="233" y="-160"/>
			<point x="223" y="-150"/>
			<point x="227" y="-130" type="curve" smooth="yes"/>
			<point x="231" y="-112"/>
			<point x="237" y="-86"/>
			<point x="241" y="-68" type="curve"/>
			<point x="211" y="-68" type="line"/>
			<point x="200" y="-124" type="line" smooth="yes"/>
			<point x="191" y="-170"/>
			<point x="208" y="-188"/>
		</contour>
	</outline>
	<anchor name="_belowLC" x="234" y="-30"/>
</glyph>
<glyph name="breveinverteddoublecmb" format="1">
	<unicode hex="0361"/>
	<advance width="600"/>
	<outline>
		<contour>
			<point x="-79" y="612" type="line"/>
			<point x="63" y="692"/>
			<point x="225" y="734"/>
			<point x="385" y="734" type="curve" smooth="yes"/>
			<point x="545" y="734"/>
			<point x="691" y="692"/>
			<point x="801" y="612" type="curve"/>
			<point x="817" y="632" type="line"/>
			<point x="701" y="714"/>
			<point x="566" y="762"/>
			<point x="390" y="762" type="curve" smooth="yes"/>
			<point x="214" y="762"/>
			<point x="61" y="714"/>
			<point x="-87" y="632" type="curve"/>
		</contour>
	</outline>
</glyph>
<glyph name="dagger" format="2">
	<unicode hex="2020"/>
	<advance width="600"/>
	<outline>
		<contour>
			<point x="206" y="-80" type="line"/>
			<point x="236" y="-80" type="line"/>
			<point x="358" y="536" type="line"/>
			<point x="480" y="534" type="line"/>
			<point x="486" y="564" type="line"/>
			<point x="364" y="562" type="line"/>
			<point x="394" y="712" type="line"/>
			<point x="364" y="712" type="line"/>
			<point x="336" y="562" type="line"/>
			<point x="214" y="564" type="line"/>
			<point x="208" y="534" type="line"/>
			<point x="332" y="536" type="line"/>
		</contour>
	</outline>
</glyph>
<glyph name="primereversed" format="1">
	<unicode hex="2035"/>
	<advance width="600"/>
	<outline>
		<contour>
			<point x="384" y="500" type="line"/>
			<point x="402" y="500" type="line"/>
			<point x="338" y="694" type="line"/>
			<point x="312" y="694" type="line"/>
			<point x="332" y="632" type="line"/>
		</contour>
	</outline>
</glyph>
<glyph name="interrobang" format="1">
	<unicode hex="203D"/>
	<advance width="600"/>
	<outline>
		<contour>
			<point x="260" y="214" type="curve"/>
			<point x="280" y="214" type="line"/>
			<point x="298" y="390"/>
			<point x="504" y="412"/>
			<point x="504" y="560" type="curve" smooth="yes"/>
			<point x="504" y="626"/>
			<point x="458" y="682"/>
			<point x="362" y="682" type="curve" smooth="yes"/>
			<point x="288" y="682"/>
			<point x="226" y="644"/>
			<point x="182" y="592" type="curve"/>
			<point x="202" y="576" type="line"/>
			<point x="244" y="626"/>
			<point x="292" y="656"/>
			<point x="360" y="656" type="curve" smooth="yes"/>
			<point x="442" y="656"/>
			<point x="476" y="609"/>
			<point x="476" y="554" type="curve" smooth="yes"/>
			<point x="476" y="426"/>
			<point x="274" y="398"/>
		</contour>
		<contour>
			<point x="256" y="214" type="line"/>
			<point x="278" y="214" type="line"/>
			<point x="341" y="488" type="line"/>
			<point x="353" y="550" type="line"/>
			<point x="321" y="550" type="line"/>
			<point x="309" y="488" type="line"/>
		</contour>
		<contour>
			<point x="228" y="-12" type="curve" smooth="yes"/>
			<point x="260" y="-12"/>
			<point x="290" y="22"/>
			<point x="290" y="56" type="curve" smooth="yes"/>
			<point x="290" y="84"/>
			<point x="274" y="102"/>
			<point x="248" y="102" type="curve" smooth="yes"/>
			<point x="216" y="102"/>
			<point x="186" y="68"/>
			<point x="186" y="34" type="curve" smooth="yes"/>
			<point x="186" y="6"/>
			<point x="202" y="-12"/>
		</contour>
	</outline>
</glyph>
<glyph name="fraction" format="2">
	<unicode hex="2044"/>
	<advance width="600"/>
	<outline>
		<contour>
			<point x="10" y="35" type="line"/>
			<point x="224" y="242" type="line"/>
			<point x="210" y="258" type="line"/>
			<point x="-10" y="57" type="line"/>
		</contour>
		<contour>
			<point x="402" y="403" type="line"/>
			<point x="621" y="602" type="line"/>
			<point x="601" y="624" type="line"/>
			<point x="388" y="418" type="line"/>
		</contour>
	</outline>
</glyph>
<glyph name="exclamquestion" format="2">
	<unicode hex="2049"/>
	<advance width="600"/>
	<outline>
		<contour>
			<point x="376" y="214" type="curve"/>
			<point x="402" y="214" type="line"/>
			<point x="402" y="370"/>
			<point x="604" y="398"/>
			<point x="604" y="570" type="curve" smooth="yes"/>
			<point x="604" y="634"/>
			<point x="553" y="682"/>
			<point x="486" y="682" type="curve" smooth="yes"/>
			<point x="430" y="682"/>
			<point x="386" y="654"/>
			<point x="352" y="612" type="curve"/>
			<point x="372" y="596" type="line"/>
			<point x="402" y="634"/>
			<point x="436" y="656"/>
			<point x="484" y="656" type="curve" smooth="yes"/>
			<point x="540" y="656"/>
			<point x="576" y="614"/>
			<point x="576" y="564" type="curve" smooth="yes"/>
			<point x="576" y="414"/>
			<point x="376" y="382"/>
		</contour>
		<contour>
			<point x="356" y="-12" type="curve" smooth="yes"/>
			<point x="388" y="-12"/>
			<point x="418" y="22"/>
			<point x="418" y="56" type="curve" smooth="yes"/>
			<point x="418" y="84"/>
			<point x="402" y="102"/>
			<point x="376" y="102" type="curve" smooth="yes"/>
			<point x="344" y="102"/>
			<point x="314" y="68"/>
			<point x="314" y="34" type="curve" smooth="yes"/>
			<point x="314" y="6"/>
			<point x="330" y="-12"/>
		</contour>
		<component base="exclam" xOffset="-140"/>
	</outline>
</glyph>
<glyph name="arrowright" format="1">
	<unicode hex="2192"/>
	<advance width="600"/>
	<outline>
		<contour>
			<point x="310" y="-14" type="line"/>
			<point x="578" y="250" type="line"/>
			<point x="578" y="254" type="line"/>
			<point x="310" y="518" type="line"/>
			<point x="291" y="499" type="line"/>
			<point x="535" y="265" type="line"/>
			<point x="28" y="265" type="line"/>
			<point x="28" y="239" type="line"/>
			<point x="535" y="239" type="line"/>
			<point x="291" y="5" type="line"/>
		</contour>
	</outline>
</glyph>
<glyph name="minus" format="1">
	<unicode hex="2212"/>
	<advance width="600"/>
	<outline>
		<contour>
			<point x="99" y="317" type="line"/>
			<point x="501" y="317" type="line"/>
			<point x="501" y="343" type="line"/>
			<point x="99" y="343" type="line"/>
		</contour>
	</outline>
</glyph>
<glyph name="house" format="2">
	<unicode hex="2302"/>
	<advance width="600"/>
	<outline>
		<contour>
			<point x="60" y="0" type="line"/>
			<point x="540" y="0" type="line"/>
			<point x="540" y="360" type="line"/>
			<point x="317" y="670" type="line"/>
			<point x="283" y="670" type="line"/>
			<point x="60" y="360" type="line"/>
		</contour>
		<contour>
			<point x="89" y="27" type="line"/>
			<point x="89" y="348" type="line"/>
			<point x="203" y="511" type="line"/>
			<point x="298" y="645" type="line"/>
			<point x="302" y="645" type="line"/>
			<point x="397" y="511" type="line"/>
			<point x="511" y="348" type="line"/>
			<point x="511" y="27" type="line"/>
		</contour>
	</outline>
</glyph>
<glyph name="revlogicalnot" format="2">
	<unicode hex="2310"/>
	<advance width="600"/>
	<outline>
		<contour>
			<point x="99" y="112" type="line"/>
			<point x="129" y="112" type="line"/>
			<point x="129" y="317" type="line"/>
			<point x="501" y="317" type="line"/>
			<point x="501" y="343" type="line"/>
			<point x="99" y="343" type="line"/>
		</contour>
	</outline>
</glyph>
<glyph name="integraltp" format="1">
	<unicode hex="2320"/>
	<advance width="600"/>
	<outline>
		<contour>
			<point x="315" y="-400" type="line"/>
			<point x="315" y="576" type="line"/>
			<point x="315" y="687"/>
			<point x="325" y="761"/>
			<point x="383" y="761" type="curve" smooth="yes"/>
			<point x="397" y="761"/>
			<point x="409" y="759"/>
			<point x="417" y="757" type="curve"/>
			<point x="423" y="782" type="line"/>
			<point x="417" y="786"/>
			<point x="401" y="788"/>
			<point x="385" y="788" type="curve" smooth="yes"/>
			<point x="305" y="788"/>
			<point x="287" y="694"/>
			<point x="287" y="574" type="curve"/>
			<point x="287" y="-400" type="line"/>
		</contour>
	</outline>
</glyph>
<glyph name="lightleftbxd" format="2">
	<unicode hex="2574"/>
	<advance width="600"/>
	<outline>
		<contour>
			<point x="-15" y="285" type="line"/>
			<point x="315" y="285" type="line"/>
			<point x="315" y="315" type="line"/>
			<point x="-15" y="315" type="line"/>
		</contour>
	</outline>
</glyph>
<glyph name="bulletsquare" format="1">
	<unicode hex="25AA"/>
	<advance width="600"/>
	<outline>
		<contour>
			<point x="177" y="138" type="line"/>
			<point x="423" y="138" type="line"/>
			<point x="423" y="386" type="line"/>
			<point x="177" y="386" type="line"/>
		</contour>
	</outline>
</glyph>
<glyph name="trianglesmallrightblack" format="1">
	<unicode hex="25B8"/>
	<advance width="600"/>
	<outline>
		<contour>
			<point x="181" y="114" type="line"/>
			<point x="183" y="114" type="line"/>
			<point x="449" y="262" type="line"/>
			<point x="449" y="264" type="line"/>
			<point x="183" y="412" type="line"/>
			<point x="181" y="412" type="line"/>
		</contour>
	</outline>
</glyph>
<glyph name="pointerblackright" format="2">
	<unicode hex="25BA"/>
	<advance width="600"/>
	<outline>
		<contour>
			<point x="28" y="110" type="line"/>
			<point x="30" y="110" type="line"/>
			<point x="622" y="349" type="line"/>
			<point x="622" y="351" type="line"/>
			<point x="30" y="590" type="line"/>
			<point x="28" y="590" type="line"/>
		</contour>
	</outline>
</glyph>
<glyph name="trianglesmalldownblack" format="2">
	<unicode hex="25BE"/>
	<advance width="600"/>
	<outline>
		<contour>
			<point x="299" y="112" type="line"/>
			<point x="301" y="112" type="line"/>
			<point x="447" y="380" type="line"/>
			<point x="447" y="382" type="line"/>
			<point x="153" y="382" type="line"/>
			<point x="153" y="380" type="line"/>
		</contour>
	</outline>
</glyph>
<glyph name="trianglesmallleftwhite" format="1">
	<unicode hex="25C3"/>
	<advance width="600"/>
	<outline>
		<contour>
			<point x="425" y="102" type="line"/>
			<point x="427" y="102" type="line"/>
			<point x="427" y="424" type="line"/>
			<point x="425" y="424" type="line"/>
			<point x="141" y="264" type="line"/>
			<point x="141" y="262" type="line"/>
		</contour>
		<contour>
			<point x="406" y="139" type="line"/>
			<point x="183" y="263" type="line"/>
			<point x="406" y="388" type="line"/>
		</contour>
	</outline>
</glyph>
<glyph name="pointerblackleft" format="2">
	<unicode hex="25C4"/>
	<advance width="600"/>
	<outline>
		<contour>
			<point x="570" y="110" type="line"/>
			<point x="572" y="110" type="line"/>
			<point x="572" y="590" type="line"/>
			<point x="570" y="590" type="line"/>
			<point x="-22" y="351" type="line"/>
			<point x="-22" y="349" type="line"/>
		</contour>
	</outline>
</glyph>
<glyph name="coffee" format="2">
	<unicode hex="2615"/>
	<advance width="600"/>
	<outline>
		<contour>
			<point x="252" y="48" type="curve" smooth="yes"/>
			<point x="343" y="48"/>
			<point x="427" y="85"/>
			<point x="472" y="164" type="curve"/>
			<point x="573" y="164"/>
			<point x="652" y="226"/>
			<point x="652" y="320" type="curve" smooth="yes"/>
			<point x="652" y="404"/>
			<point x="602" y="442"/>
			<point x="528" y="454" type="curve"/>
			<point x="513" y="556"/>
			<point x="423" y="612"/>
			<point x="252" y="612" type="curve" smooth="yes"/>
			<point x="77" y="612"/>
			<point x="-28" y="547"/>
			<point x="-28" y="428" type="curve" smooth="yes"/>
			<point x="-28" y="167"/>
			<point x="82" y="48"/>
		</contour>
		<contour>
			<point x="252" y="74" type="curve" smooth="yes"/>
			<point x="103" y="74"/>
			<point x="1" y="177"/>
			<point x="1" y="420" type="curve" smooth="yes"/>
			<point x="1" y="523"/>
			<point x="92" y="586"/>
			<point x="252" y="586" type="curve" smooth="yes"/>
			<point x="414" y="586"/>
			<point x="503" y="528"/>
			<point x="503" y="430" type="curve"/>
			<point x="584" y="430"/>
			<point x="625" y="380"/>
			<point x="625" y="320" type="curve" smooth="yes"/>
			<point x="625" y="248"/>
			<point x="570" y="186"/>
			<point x="455" y="186" type="curve"/>
			<point x="417" y="106"/>
			<point x="339" y="74"/>
		</contour>
		<contour>
			<point x="252" y="322" type="curve" smooth="yes"/>
			<point x="386" y="322"/>
			<point x="452" y="354"/>
			<point x="485" y="410" type="curve"/>
			<point x="465" y="471"/>
			<point x="378" y="516"/>
			<point x="252" y="516" type="curve" smooth="yes"/>
			<point x="127" y="516"/>
			<point x="39" y="472"/>
			<point x="19" y="410" type="curve"/>
			<point x="53" y="354"/>
			<point x="119" y="322"/>
		</contour>
		<contour>
			<point x="479" y="246" type="curve"/>
			<point x="525" y="246"/>
			<point x="563" y="270"/>
			<point x="563" y="314" type="curve" smooth="yes"/>
			<point x="563" y="354"/>
			<point x="544" y="366"/>
			<point x="501" y="366" type="curve"/>
			<point x="499" y="326"/>
			<point x="493" y="286"/>
		</contour>
		<contour>
			<point x="321" y="418" type="curve"/>
			<point x="321" y="418" type="line"/>
			<point x="260" y="374"/>
			<point x="215" y="360"/>
			<point x="173" y="360" type="curve" smooth="yes"/>
			<point x="136" y="360"/>
			<point x="115" y="376"/>
			<point x="115" y="392" type="curve" smooth="yes"/>
			<point x="115" y="404"/>
			<point x="124" y="412"/>
			<point x="151" y="418" type="curve"/>
			<point x="151" y="418" type="line"/>
			<point x="124" y="424"/>
			<point x="115" y="432"/>
			<point x="115" y="444" type="curve" smooth="yes"/>
			<point x="115" y="460"/>
			<point x="136" y="476"/>
			<point x="173" y="476" type="curve" smooth="yes"/>
			<point x="215" y="476"/>
			<point x="260" y="462"/>
		</contour>
		<contour>
			<point x="327" y="418" type="curve"/>
			<point x="327" y="418" type="line"/>
			<point x="361" y="438"/>
			<point x="387" y="444"/>
			<point x="401" y="444" type="curve" smooth="yes"/>
			<point x="417" y="444"/>
			<point x="431" y="434"/>
			<point x="431" y="418" type="curve" smooth="yes"/>
			<point x="431" y="402"/>
			<point x="417" y="392"/>
			<point x="401" y="392" type="curve" smooth="yes"/>
			<point x="387" y="392"/>
			<point x="361" y="398"/>
		</contour>
	</outline>
</glyph>
<glyph name="invsmileface" format="2">
	<unicode hex="263B"/>
	<advance width="600"/>
	<outline>
		<contour>
			<point x="300" y="68" type="curve" smooth="yes"/>
			<point x="454" y="68"/>
			<point x="560" y="180"/>
			<point x="560" y="330" type="curve" smooth="yes"/>
			<point x="560" y="480"/>
			<point x="454" y="592"/>
			<point x="300" y="592" type="curve" smooth="yes"/>
			<point x="146" y="592"/>
			<point x="40" y="480"/>
			<point x="40" y="330" type="curve" smooth="yes"/>
			<point x="40" y="180"/>
			<point x="146" y="68"/>
		</contour>
		<contour>
			<point x="222" y="346" type="curve" smooth="yes"/>
			<point x="194" y="346"/>
			<point x="178" y="372"/>
			<point x="178" y="404" type="curve" smooth="yes"/>
			<point x="178" y="436"/>
			<point x="194" y="462"/>
			<point x="222" y="462" type="curve" smooth="yes"/>
			<point x="250" y="462"/>
			<point x="266" y="436"/>
			<point x="266" y="404" type="curve" smooth="yes"/>
			<point x="266" y="372"/>
			<point x="250" y="346"/>
		</contour>
		<contour>
			<point x="378" y="346" type="curve" smooth="yes"/>
			<point x="350" y="346"/>
			<point x="334" y="372"/>
			<point x="334" y="404" type="curve" smooth="yes"/>
			<point x="334" y="436"/>
			<point x="350" y="462"/>
			<point x="378" y="462" type="curve" smooth="yes"/>
			<point x="406" y="462"/>
			<point x="422" y="436"/>
			<point x="422" y="404" type="curve" smooth="yes"/>
			<point x="422" y="372"/>
			<point x="406" y="346"/>
		</contour>
		<contour>
			<point x="300" y="154" type="curve" smooth="yes"/>
			<point x="212" y="154"/>
			<point x="154" y="202"/>
			<point x="144" y="288" type="curve"/>
			<point x="168" y="296" type="line"/>
			<point x="188" y="236"/>
			<point x="236" y="210"/>
			<point x="300" y="210" type="curve" smooth="yes"/>
			<point x="364" y="210"/>
			<point x="412" y="236"/>
			<point x="432" y="296" type="curve"/>
			<point x="456" y="288" type="line"/>
			<point x="446" y="202"/>
			<point x="388" y="154"/>
		</contour>
		<contour>
			<point x="212" y="391" type="curve" smooth="yes"/>
			<point x="220" y="391"/>
			<point x="228" y="397"/>
			<point x="228" y="409" type="curve" smooth="yes"/>
			<point x="228" y="421"/>
			<point x="220" y="427"/>
			<point x="212" y="427" type="curve" smooth="yes"/>
			<point x="204" y="427"/>
			<point x="196" y="421"/>
			<point x="196" y="409" type="curve" smooth="yes"/>
			<point x="196" y="397"/>
			<point x="204" y="391"/>
		</contour>
		<contour>
			<point x="368" y="391" type="curve" smooth="yes"/>
			<point x="376" y="391"/>
			<point x="384" y="397"/>
			<point x="384" y="409" type="curve" smooth="yes"/>
			<point x="384" y="421"/>
			<point x="376" y="427"/>
			<point x="368" y="427" type="curve" smooth="yes"/>
			<point x="360" y="427"/>
			<point x="352" y="421"/>
			<point x="352" y="409" type="curve" smooth="yes"/>
			<point x="352" y="397"/>
			<point x="360" y="391"/>
		</contour>
	</outline>
</glyph>
<glyph name="female" format="2">
	<unicode hex="2640"/>
	<advance width="600"/>
	<outline>
		<contour>
			<point x="300" y="259" type="curve" smooth="yes"/>
			<point x="428" y="259"/>
			<point x="527" y="354"/>
			<point x="527" y="482" type="curve" smooth="yes"/>
			<point x="527" y="610"/>
			<point x="428" y="706"/>
			<point x="300" y="706" type="curve" smooth="yes"/>
			<point x="172" y="706"/>
			<point x="73" y="610"/>
			<point x="73" y="482" type="curve" smooth="yes"/>
			<point x="73" y="354"/>
			<point x="172" y="259"/>
		</contour>
		<contour>
			<point x="300" y="286" type="curve" smooth="yes"/>
			<point x="190" y="286"/>
			<point x="103" y="366"/>
			<point x="103" y="482" type="curve" smooth="yes"/>
			<point x="103" y="599"/>
			<point x="190" y="679"/>
			<point x="300" y="679" type="curve" smooth="yes"/>
			<point x="411" y="679"/>
			<point x="497" y="599"/>
			<point x="497" y="482" type="curve" smooth="yes"/>
			<point x="497" y="366"/>
			<point x="411" y="286"/>
		</contour>
		<contour>
			<point x="285" y="-38" type="line"/>
			<point x="315" y="-38" type="line"/>
			<point x="315" y="107" type="line"/>
			<point x="461" y="107" type="line"/>
			<point x="461" y="134" type="line"/>
			<point x="315" y="134" type="line"/>
			<point x="315" y="278" type="line"/>
			<point x="285" y="278" type="line"/>
			<point x="285" y="134" type="line"/>
			<point x="139" y="134" type="line"/>
			<point x="139" y="107" type="line"/>
			<point x="285" y="107" type="line"/>
		</contour>
	</outline>
</glyph>
<glyph name="male" format="2">
	<unicode hex="2642"/>
	<advance width="600"/>
	<outline>
		<contour>
			<point x="224" y="22" type="curve" smooth="yes"/>
			<point x="351" y="22"/>
			<point x="451" y="118"/>
			<point x="451" y="246" type="curve" smooth="yes"/>
			<point x="451" y="374"/>
			<point x="351" y="470"/>
			<point x="224" y="470" type="curve" smooth="yes"/>
			<point x="96" y="470"/>
			<point x="-4" y="374"/>
			<point x="-4" y="246" type="curve" smooth="yes"/>
			<point x="-4" y="118"/>
			<point x="96" y="22"/>
		</contour>
		<contour>
			<point x="224" y="49" type="curve" smooth="yes"/>
			<point x="113" y="49"/>
			<point x="27" y="130"/>
			<point x="27" y="246" type="curve" smooth="yes"/>
			<point x="27" y="363"/>
			<point x="113" y="443"/>
			<point x="224" y="443" type="curve" smooth="yes"/>
			<point x="334" y="443"/>
			<point x="421" y="363"/>
			<point x="421" y="246" type="curve" smooth="yes"/>
			<point x="421" y="130"/>
			<point x="334" y="49"/>
		</contour>
		<contour>
			<point x="371" y="399" type="line"/>
			<point x="577" y="605" type="line"/>
			<point x="570" y="388" type="line"/>
			<point x="596" y="388" type="line"/>
			<point x="599" y="644" type="line"/>
			<point x="596" y="647" type="line"/>
			<point x="342" y="644" type="line"/>
			<point x="342" y="617" type="line"/>
			<point x="558" y="624" type="line"/>
			<point x="353" y="418" type="line"/>
		</contour>
	</outline>
</glyph>
<glyph name="spade" format="2">
	<unicode hex="2660"/>
	<advance width="600"/>
	<outline>
		<contour>
			<point x="112" y="0" type="line"/>
			<point x="488" y="0" type="line"/>
			<point x="488" y="26" type="line"/>
			<point x="398" y="40"/>
			<point x="332" y="88"/>
			<point x="312" y="272" type="curve"/>
			<point x="288" y="272" type="line"/>
			<point x="268" y="88"/>
			<point x="202" y="40"/>
			<point x="112" y="26" type="curve"/>
		</contour>
		<contour>
			<point x="278" y="248" type="curve"/>
			<point x="322" y="248" type="line"/>
			<point x="352" y="179"/>
			<point x="402" y="158"/>
			<point x="458" y="158" type="curve" smooth="yes"/>
			<point x="530" y="158"/>
			<point x="584" y="201"/>
			<point x="584" y="294" type="curve" smooth="yes"/>
			<point x="584" y="416"/>
			<point x="526" y="494"/>
			<point x="302" y="734" type="curve"/>
			<point x="298" y="734" type="line"/>
			<point x="74" y="494"/>
			<point x="16" y="416"/>
			<point x="16" y="294" type="curve" smooth="yes"/>
			<point x="16" y="201"/>
			<point x="70" y="158"/>
			<point x="142" y="158" type="curve" smooth="yes"/>
			<point x="198" y="158"/>
			<point x="248" y="179"/>
		</contour>
	</outline>
</glyph>
<glyph name="brackhalftopleft" format="1">
	<unicode hex="2E22"/>
	<advance width="600"/>
	<outline>
		<contour>
			<point x="228" y="278" type="line"/>
			<point x="254" y="278" type="line"/>
			<point x="334" y="686" type="line"/>
			<point x="566" y="686" type="line"/>
			<point x="570" y="708" type="line"/>
			<point x="314" y="708" type="line"/>
		</contour>
	</outline>
</glyph>
<glyph name="lock" format="2">
	<unicode hex="1F512"/>
	<advance width="600"/>
	<outline>
		<contour>
			<point x="101" y="-70" type="line"/>
			<point x="499" y="-70" type="line"/>
			<point x="539" y="-30" type="line"/>
			<point x="539" y="480" type="line"/>
			<point x="499" y="520" type="line"/>
			<point x="453" y="520" type="line"/>
			<point x="453" y="680" type="line" smooth="yes"/>
			<point x="453" y="792"/>
			<point x="398" y="856"/>
			<point x="300" y="856" type="curve" smooth="yes"/>
			<point x="202" y="856"/>
			<point x="147" y="792"/>
			<point x="147" y="680" type="curve"/>
			<point x="147" y="520" type="line"/>
			<point x="101" y="520" type="line"/>
			<point x="61" y="480" type="line"/>
			<point x="61" y="-30" type="line"/>
		</contour>
		<contour>
			<point x="244" y="52" type="line"/>
			<point x="272" y="226" type="line"/>
			<point x="230" y="242"/>
			<point x="214" y="270"/>
			<point x="214" y="308" type="curve" smooth="yes"/>
			<point x="214" y="357"/>
			<point x="252" y="392"/>
			<point x="300" y="392" type="curve" smooth="yes"/>
			<point x="348" y="392"/>
			<point x="386" y="357"/>
			<point x="386" y="308" type="curve" smooth="yes"/>
			<point x="386" y="270"/>
			<point x="370" y="242"/>
			<point x="328" y="226" type="curve"/>
			<point x="356" y="52" type="line"/>
			<point x="310" y="32" type="line"/>
			<point x="290" y="32" type="line"/>
		</contour>
		<contour>
			<point x="177" y="520" type="line"/>
			<point x="177" y="680" type="line" smooth="yes"/>
			<point x="177" y="773"/>
			<point x="217" y="827"/>
			<point x="300" y="827" type="curve" smooth="yes"/>
			<point x="383" y="827"/>
			<point x="423" y="773"/>
			<point x="423" y="680" type="curve" smooth="yes"/>
			<point x="423" y="520" type="line"/>
		</contour>
	</outline>
</glyph>
<glyph name="robot" format="2">
	<unicode hex="1F916"/>
	<advance width="600"/>
	<outline>
		<contour>
			<point x="300" y="48" type="curve" smooth="yes"/>
			<point x="453" y="48"/>
			<point x="578" y="153"/>
			<point x="578" y="350" type="curve" smooth="yes"/>
			<point x="578" y="531"/>
			<point x="463" y="612"/>
			<point x="300" y="612" type="curve" smooth="yes"/>
			<point x="137" y="612"/>
			<point x="22" y="531"/>
			<point x="22" y="350" type="curve" smooth="yes"/>
			<point x="22" y="153"/>
			<point x="147" y="48"/>
		</contour>
		<contour>
			<point x="300" y="74" type="curve" smooth="yes"/>
			<point x="160" y="74"/>
			<point x="50" y="160"/>
			<point x="50" y="350" type="curve" smooth="yes"/>
			<point x="50" y="522"/>
			<point x="150" y="586"/>
			<point x="300" y="586" type="curve" smooth="yes"/>
			<point x="450" y="586"/>
			<point x="550" y="522"/>
			<point x="550" y="350" type="curve" smooth="yes"/>
			<point x="550" y="160"/>
			<point x="440" y="74"/>
		</contour>
		<contour>
			<point x="300" y="258" type="curve" smooth="yes"/>
			<point x="437" y="258"/>
			<point x="498" y="282"/>
			<point x="498" y="354" type="curve" smooth="yes"/>
			<point x="498" y="464"/>
			<point x="426" y="514"/>
			<point x="300" y="514" type="curve" smooth="yes"/>
			<point x="174" y="514"/>
			<point x="102" y="464"/>
			<point x="102" y="354" type="curve" smooth="yes"/>
			<point x="102" y="282"/>
			<point x="163" y="258"/>
		</contour>
		<contour>
			<point x="146" y="332" type="line"/>
			<point x="148" y="418"/>
			<point x="172" y="452"/>
			<point x="214" y="452" type="curve" smooth="yes"/>
			<point x="256" y="452"/>
			<point x="280" y="418"/>
			<point x="282" y="332" type="curve"/>
			<point x="250" y="330" type="line"/>
			<point x="248" y="374"/>
			<point x="238" y="392"/>
			<point x="214" y="392" type="curve" smooth="yes"/>
			<point x="190" y="392"/>
			<point x="180" y="374"/>
			<point x="178" y="330" type="curve"/>
		</contour>
		<contour>
			<point x="318" y="332" type="line"/>
			<point x="320" y="418"/>
			<point x="344" y="452"/>
			<point x="386" y="452" type="curve" smooth="yes"/>
			<point x="428" y="452"/>
			<point x="452" y="418"/>
			<point x="454" y="332" type="curve"/>
			<point x="422" y="330" type="line"/>
			<point x="420" y="374"/>
			<point x="410" y="392"/>
			<point x="386" y="392" type="curve" smooth="yes"/>
			<point x="362" y="392"/>
			<point x="352" y="374"/>
			<point x="350" y="330" type="curve"/>
		</contour>
		<contour>
			<point x="300" y="148" type="curve" smooth="yes"/>
			<point x="320" y="148"/>
			<point x="337" y="154"/>
			<point x="337" y="168" type="curve" smooth="yes"/>
			<point x="337" y="177"/>
			<point x="330" y="180"/>
			<point x="300" y="180" type="curve" smooth="yes"/>
			<point x="270" y="180"/>
			<point x="263" y="177"/>
			<point x="263" y="168" type="curve" smooth="yes"/>
			<point x="263" y="154"/>
			<point x="280" y="148"/>
		</contour>
		<contour>
			<point x="48" y="218" type="curve"/>
			<point x="44" y="424" type="line"/>
			<point x="1" y="424"/>
			<point x="-16" y="405"/>
			<point x="-16" y="348" type="curve" smooth="yes"/>
			<point x="-16" y="259"/>
			<point x="5" y="218"/>
		</contour>
		<contour>
			<point x="552" y="218" type="line"/>
			<point x="595" y="218"/>
			<point x="616" y="259"/>
			<point x="616" y="348" type="curve" smooth="yes"/>
			<point x="616" y="405"/>
			<point x="599" y="424"/>
			<point x="556" y="424" type="curve"/>
		</contour>
	</outline>
</glyph>
<glyph name="aogonek.a" format="1">
	<advance width="600"/>
	<outline>
		<contour>
			<point x="372" y="-224" type="curve" smooth="yes"/>
			<point x="404" y="-224"/>
			<point x="428" y="-212"/>
			<point x="446" y="-196" type="curve"/>
			<point x="434" y="-178" type="line"/>
			<point x="418" y="-190"/>
			<point x="400" y="-198"/>
			<point x="378" y="-198" type="curve" smooth="yes"/>
			<point x="342" y="-198"/>
			<point x="314" y="-182"/>
			<point x="314" y="-144" type="curve" smooth="yes"/>
			<point x="314" y="-94"/>
			<point x="362" y="-50"/>
			<point x="438" y="-8" type="curve"/>
			<point x="502" y="320" type="line" smooth="yes"/>
			<point x="505" y="336"/>
			<point x="506" y="350"/>
			<point x="506" y="364" type="curve" smooth="yes"/>
			<point x="506" y="440"/>
			<point x="466" y="490"/>
			<point x="366" y="490" type="curve" smooth="yes"/>
			<point x="270" y="490"/>
			<point x="180" y="448"/>
			<point x="134" y="418" type="curve"/>
			<point x="149" y="394" type="line"/>
			<point x="192" y="424"/>
			<point x="276" y="464"/>
			<point x="364" y="464" type="curve" smooth="yes"/>
			<point x="446" y="464"/>
			<point x="478" y="424"/>
			<point x="478" y="358" type="curve" smooth="yes"/>
			<point x="478" y="340"/>
			<point x="473" y="316"/>
			<point x="468" y="294" type="curve"/>
			<point x="184" y="276"/>
			<point x="68" y="222"/>
			<point x="68" y="94" type="curve" smooth="yes"/>
			<point x="68" y="22"/>
			<point x="129" y="-12"/>
			<point x="204" y="-12" type="curve" smooth="yes"/>
			<point x="286" y="-12"/>
			<point x="372" y="36"/>
			<point x="430" y="92" type="curve"/>
			<point x="432" y="92" type="line"/>
			<point x="416" y="0" type="line"/>
			<point x="344" y="-38"/>
			<point x="286" y="-84"/>
			<point x="286" y="-152" type="curve" smooth="yes"/>
			<point x="286" y="-204"/>
			<point x="329" y="-224"/>
		</contour>
		<contour>
			<point x="206" y="14" type="curve" smooth="yes"/>
			<point x="146" y="14"/>
			<point x="98" y="38"/>
			<point x="98" y="100" type="curve" smooth="yes"/>
			<point x="98" y="200"/>
			<point x="190" y="250"/>
			<point x="464" y="268" type="curve"/>
			<point x="436" y="126" type="line"/>
			<point x="358" y="56"/>
			<point x="282" y="14"/>
		</contour>
		<contour>
			<point name="aboveLC" x="350" y="500" type="move"/>
		</contour>
	</outline>
</glyph>
<glyph name="asterisk.a" format="1">
	<advance width="600"/>
	<outline>
		<contour>
			<point x="200" y="354" type="line"/>
			<point x="330" y="490" type="line"/>
			<point x="410" y="348" type="line"/>
			<point x="430" y="360" type="line"/>
			<point x="362" y="510" type="line"/>
			<point x="524" y="578" type="line"/>
			<point x="516" y="598" type="line"/>
			<point x="356" y="544" type="line"/>
			<point x="382" y="712" type="line"/>
			<point x="358" y="712" type="line"/>
			<point x="320" y="545" type="line"/>
			<point x="178" y="598" type="line"/>
			<point x="168" y="578" type="line"/>
			<point x="300" y="516" type="line"/>
			<point x="180" y="368" type="line"/>
		</contour>
	</outline>
</glyph>
<glyph name="circumflexcmb.cap" format="2">
	<advance width="600"/>
	<outline>
		<contour>
			<point x="266" y="710" type="line"/>
			<point x="398" y="812" type="line"/>
			<point x="402" y="812" type="line"/>
			<point x="496" y="712" type="line"/>
			<point x="512" y="726" type="line"/>
			<point x="416" y="840" type="line"/>
			<point x="388" y="840" type="line"/>
			<point x="252" y="726" type="line"/>
		</contour>
	</outline>
	<anchor name="_aboveUC" x="374" y="680"/>
</glyph>
<glyph name="circumflexhoicmb" format="1">
	<advance width="600"/>
	<outline>
		<contour>
			<point x="250" y="574" type="line"/>
			<point x="372" y="654" type="line"/>
			<point x="376" y="654" type="line"/>
			<point x="462" y="574" type="line"/>
			<point x="478" y="590" type="line"/>
			<point x="388" y="684" type="line"/>
			<point x="360" y="684" type="line"/>
			<point x="238" y="592" type="line"/>
		</contour>
		<contour>
			<point x="466" y="628" type="line"/>
			<point x="500" y="639"/>
			<point x="540" y="658"/>
			<point x="548" y="702" type="curve" smooth="yes"/>
			<point x="556" y="750"/>
			<point x="509" y="768"/>
			<point x="458" y="770" type="curve"/>
			<point x="454" y="746" type="line"/>
			<point x="502" y="744"/>
			<point x="524" y="730"/>
			<point x="518" y="698" type="curve" smooth="yes"/>
			<point x="514" y="674"/>
			<point x="490" y="660"/>
			<point x="458" y="650" type="curve"/>
		</contour>
		<contour>
			<point name="_aboveLC" x="338" y="500" type="move"/>
		</contour>
	</outline>
</glyph>
<glyph name="eacute.sups" format="1">
	<advance width="600"/>
	<outline>
		<contour>
			<point x="380" y="788" type="line"/>
			<point x="488" y="882" type="line"/>
			<point x="470" y="902" type="line"/>
			<point x="366" y="804" type="line"/>
		</contour>
		<component base="e.sups"/>
	</outline>
</glyph>
<glyph name="four.cap" format="2">
	<advance width="600"/>
	<outline>
		<contour>
			<point x="339" y="0" type="line"/>
			<point x="367" y="0" type="line"/>
			<point x="499" y="660" type="line"/>
			<point x="484" y="660" type="line"/>
			<point x="38" y="232" type="line"/>
			<point x="35" y="217" type="line"/>
			<point x="525" y="217" type="line"/>
			<point x="532" y="243" type="line"/>
			<point x="89" y="243" type="line"/>
			<point x="385" y="529" type="line" smooth="yes"/>
			<point x="412" y="555"/>
			<point x="436" y="581"/>
			<point x="461" y="608" type="curve"/>
			<point x="464" y="608" type="line"/>
			<point x="456" y="578"/>
			<point x="448" y="549"/>
			<point x="442" y="519" type="curve" smooth="yes"/>
		</contour>
	</outline>
</glyph>
<glyph name="g.a" format="1">
	<advance width="600"/>
	<outline>
		<contour>
			<point x="206" y="-234" type="curve" smooth="yes"/>
			<point x="343" y="-234"/>
			<point x="464" y="-183"/>
			<point x="464" y="-88" type="curve" smooth="yes"/>
			<point x="464" y="-18"/>
			<point x="418" y="13"/>
			<point x="270" y="28" type="curve" smooth="yes"/>
			<point x="150" y="40"/>
			<point x="120" y="58"/>
			<point x="120" y="100" type="curve" smooth="yes"/>
			<point x="120" y="128"/>
			<point x="144" y="152"/>
			<point x="182" y="174" type="curve"/>
			<point x="210" y="159"/>
			<point x="242" y="152"/>
			<point x="268" y="152" type="curve" smooth="yes"/>
			<point x="389" y="152"/>
			<point x="476" y="244"/>
			<point x="476" y="358" type="curve" smooth="yes"/>
			<point x="476" y="428"/>
			<point x="418" y="490"/>
			<point x="332" y="490" type="curve" smooth="yes"/>
			<point x="211" y="490"/>
			<point x="124" y="398"/>
			<point x="124" y="284" type="curve" smooth="yes"/>
			<point x="124" y="244"/>
			<point x="140" y="210"/>
			<point x="162" y="192" type="curve"/>
			<point x="162" y="188" type="line"/>
			<point x="118" y="160"/>
			<point x="92" y="136"/>
			<point x="92" y="94" type="curve" smooth="yes"/>
			<point x="92" y="66"/>
			<point x="104" y="44"/>
			<point x="138" y="26" type="curve"/>
			<point x="138" y="24" type="line"/>
			<point x="70" y="-2"/>
			<point x="14" y="-48"/>
			<point x="14" y="-118" type="curve" smooth="yes"/>
			<point x="14" y="-196"/>
			<point x="109" y="-234"/>
		</contour>
		<contour>
			<point x="272" y="178" type="curve" smooth="yes"/>
			<point x="197" y="178"/>
			<point x="152" y="224"/>
			<point x="152" y="290" type="curve" smooth="yes"/>
			<point x="152" y="380"/>
			<point x="229" y="464"/>
			<point x="328" y="464" type="curve" smooth="yes"/>
			<point x="403" y="464"/>
			<point x="448" y="418"/>
			<point x="448" y="352" type="curve" smooth="yes"/>
			<point x="448" y="262"/>
			<point x="371" y="178"/>
		</contour>
		<contour>
			<point x="208" y="-208" type="curve" smooth="yes"/>
			<point x="123" y="-208"/>
			<point x="42" y="-180"/>
			<point x="42" y="-112" type="curve" smooth="yes"/>
			<point x="42" y="-60"/>
			<point x="100" y="-8"/>
			<point x="168" y="14" type="curve"/>
			<point x="197" y="8"/>
			<point x="218" y="4"/>
			<point x="254" y="0" type="curve" smooth="yes"/>
			<point x="394" y="-14"/>
			<point x="436" y="-38"/>
			<point x="436" y="-94" type="curve" smooth="yes"/>
			<point x="436" y="-157"/>
			<point x="337" y="-208"/>
		</contour>
		<contour>
			<point x="410" y="452" type="line"/>
			<point x="554" y="452" type="line"/>
			<point x="560" y="478" type="line"/>
			<point x="378" y="478" type="line"/>
		</contour>
		<contour>
			<point name="aboveLC" x="350" y="500" type="move"/>
		</contour>
		<contour>
			<point name="belowLC" x="230" y="-218" type="move"/>
		</contour>
	</outline>
</glyph>
<glyph name="g.sups" format="1">
	<advance width="600"/>
	<outline>
		<contour>
			<point x="171" y="326" type="curve"/>
			<point x="153" y="302" type="line"/>
			<point x="183" y="278"/>
			<point x="228" y="259"/>
			<point x="273" y="259" type="curve" smooth="yes"/>
			<point x="362" y="259"/>
			<point x="417" y="300"/>
			<point x="434" y="387" type="curve" smooth="yes"/>
			<point x="501" y="726" type="line"/>
			<point x="475" y="726" type="line"/>
			<point x="465" y="696" type="line"/>
			<point x="464" y="696" type="line"/>
			<point x="438" y="719"/>
			<point x="411" y="734"/>
			<point x="371" y="734" type="curve" smooth="yes"/>
			<point x="280" y="734"/>
			<point x="183" y="649"/>
			<point x="183" y="524" type="curve" smooth="yes"/>
			<point x="183" y="446"/>
			<point x="225" y="402"/>
			<point x="295" y="402" type="curve" smooth="yes"/>
			<point x="341" y="402"/>
			<point x="384" y="424"/>
			<point x="417" y="450" type="curve"/>
			<point x="404" y="391" type="line" smooth="yes"/>
			<point x="388" y="320"/>
			<point x="351" y="286"/>
			<point x="278" y="286" type="curve" smooth="yes"/>
			<point x="238" y="286"/>
			<point x="201" y="301"/>
		</contour>
		<contour>
			<point x="305" y="428" type="curve" smooth="yes"/>
			<point x="246" y="428"/>
			<point x="216" y="470"/>
			<point x="216" y="531" type="curve" smooth="yes"/>
			<point x="216" y="626"/>
			<point x="289" y="708"/>
			<point x="367" y="708" type="curve" smooth="yes"/>
			<point x="401" y="708"/>
			<point x="429" y="697"/>
			<point x="459" y="668" type="curve"/>
			<point x="423" y="481" type="line"/>
			<point x="380" y="447"/>
			<point x="342" y="428"/>
		</contour>
	</outline>
</glyph>
<glyph name="jcrossedtail.d" format="1">
	<advance width="600"/>
	<outline>
		<contour>
			<point x="317" y="-268" type="curve"/>
			<point x="342" y="-254" type="line"/>
			<point x="296" y="-144"/>
			<point x="218" y="-80"/>
			<point x="114" y="-80" type="curve" smooth="yes"/>
			<point x="41" y="-80"/>
			<point x="-2" y="-117"/>
			<point x="-2" y="-164" type="curve" smooth="yes"/>
			<point x="-2" y="-201"/>
			<point x="34" y="-234"/>
			<point x="110" y="-234" type="curve" smooth="yes"/>
			<point x="221" y="-234"/>
			<point x="288" y="-165"/>
			<point x="311" y="-52" type="curve" smooth="yes"/>
			<point x="418" y="478" type="line"/>
			<point x="150" y="478" type="line"/>
			<point x="144" y="452" type="line"/>
			<point x="384" y="452" type="line"/>
			<point x="286" y="-42" type="line" smooth="yes"/>
			<point x="269" y="-125"/>
			<point x="224" y="-208"/>
			<point x="112" y="-208" type="curve" smooth="yes"/>
			<point x="54" y="-208"/>
			<point x="26" y="-188"/>
			<point x="26" y="-160" type="curve" smooth="yes"/>
			<point x="26" y="-137"/>
			<point x="53" y="-106"/>
			<point x="112" y="-106" type="curve" smooth="yes"/>
			<point x="200" y="-106"/>
			<point x="270" y="-160"/>
		</contour>
		<contour>
			<point name="aboveLC" x="390" y="500" type="move"/>
		</contour>
		<contour>
			<point name="belowLC" x="130" y="-230" type="move"/>
		</contour>
	</outline>
</glyph>
<glyph name="macroncmb.cap" format="2">
	<advance width="600"/>
	<outline>
		<contour>
			<point x="270" y="736" type="line"/>
			<point x="500" y="736" type="line"/>
			<point x="506" y="762" type="line"/>
			<point x="276" y="762" type="line"/>
		</contour>
	</outline>
	<anchor name="_aboveUC" x="374" y="680"/>
</glyph>
<glyph name="one.ac" format="2">
	<advance width="600"/>
	<outline>
		<contour>
			<point x="54" y="0" type="line"/>
			<point x="464" y="0" type="line"/>
			<point x="468" y="26" type="line"/>
			<point x="280" y="26" type="line"/>
			<point x="408" y="660" type="line"/>
			<point x="384" y="660" type="line"/>
			<point x="198" y="516" type="line"/>
			<point x="212" y="496" type="line"/>
			<point x="385" y="612" type="line"/>
			<point x="373" y="630" type="line"/>
			<point x="252" y="26" type="line"/>
			<point x="60" y="26" type="line"/>
		</contour>
	</outline>
</glyph>
<glyph name="one.ao" format="2">
	<advance width="600"/>
	<outline>
		<contour>
			<point x="54" y="0" type="line"/>
			<point x="464" y="0" type="line"/>
			<point x="468" y="26" type="line"/>
			<point x="280" y="26" type="line"/>
			<point x="390" y="570" type="line"/>
			<point x="366" y="570" type="line"/>
			<point x="180" y="426" type="line"/>
			<point x="194" y="406" type="line"/>
			<point x="367" y="522" type="line"/>
			<point x="355" y="540" type="line"/>
			<point x="252" y="26" type="line"/>
			<point x="60" y="26" type="line"/>
		</contour>
	</outline>
</glyph>
<glyph name="r.sups" format="1">
	<advance width="600"/>
	<outline>
		<contour>
			<point x="262" y="410" type="line"/>
			<point x="292" y="410" type="line"/>
			<point x="331" y="606" type="line"/>
			<point x="377" y="667"/>
			<point x="423" y="705"/>
			<point x="471" y="705" type="curve" smooth="yes"/>
			<point x="495" y="705"/>
			<point x="506" y="702"/>
			<point x="526" y="694" type="curve"/>
			<point x="538" y="721" type="line"/>
			<point x="521" y="730"/>
			<point x="501" y="734"/>
			<point x="480" y="734" type="curve" smooth="yes"/>
			<point x="427" y="734"/>
			<point x="377" y="698"/>
			<point x="339" y="646" type="curve"/>
			<point x="335" y="646" type="line"/>
			<point x="347" y="726" type="line"/>
			<point x="325" y="726" type="line"/>
		</contour>
	</outline>
</glyph>
<glyph name="two.subs" format="1">
	<advance width="600"/>
	<outline>
		<contour>
			<point x="104" y="-170" type="line"/>
			<point x="346" y="-170" type="line"/>
			<point x="350" y="-146" type="line"/>
			<point x="150" y="-146" type="line"/>
			<point x="312" y="-28"/>
			<point x="386" y="42"/>
			<point x="386" y="134" type="curve" smooth="yes"/>
			<point x="386" y="194"/>
			<point x="346" y="232"/>
			<point x="282" y="232" type="curve" smooth="yes"/>
			<point x="236" y="232"/>
			<point x="196" y="202"/>
			<point x="166" y="170" type="curve"/>
			<point x="184" y="152" type="line"/>
			<point x="212" y="184"/>
			<point x="246" y="208"/>
			<point x="280" y="208" type="curve" smooth="yes"/>
			<point x="333" y="208"/>
			<point x="358" y="180"/>
			<point x="358" y="132" type="curve" smooth="yes"/>
			<point x="358" y="48"/>
			<point x="291" y="-12"/>
			<point x="108" y="-146" type="curve"/>
		</contour>
	</outline>
</glyph>
<glyph name="u.sups" format="1">
	<advance width="600"/>
	<outline>
		<contour>
			<point x="287" y="402" type="curve" smooth="yes"/>
			<point x="339" y="402"/>
			<point x="383" y="429"/>
			<point x="423" y="464" type="curve"/>
			<point x="425" y="464" type="line"/>
			<point x="418" y="410" type="line"/>
			<point x="443" y="410" type="line"/>
			<point x="507" y="726" type="line"/>
			<point x="477" y="726" type="line"/>
			<point x="431" y="497" type="line"/>
			<point x="382" y="454"/>
			<point x="342" y="430"/>
			<point x="292" y="430" type="curve" smooth="yes"/>
			<point x="240" y="430"/>
			<point x="221" y="459"/>
			<point x="235" y="528" type="curve" smooth="yes"/>
			<point x="275" y="726" type="line"/>
			<point x="246" y="726" type="line"/>
			<point x="205" y="524" type="line" smooth="yes"/>
			<point x="188" y="442"/>
			<point x="219" y="402"/>
		</contour>
	</outline>
</glyph>
<glyph name="variacmb" format="2">
	<advance width="600"/>
	<outline>
		<contour>
			<point x="390" y="570" type="line"/>
			<point x="410" y="584" type="line"/>
			<point x="302" y="748" type="line"/>
			<point x="276" y="730" type="line"/>
		</contour>
	</outline>
	<anchor name="_aboveLC" x="338" y="500"/>
</glyph>
<glyph name="zero.dnom" format="1">
	<advance width="600"/>
	<outline>
		<contour>
			<point x="240" y="-12" type="curve" smooth="yes"/>
			<point x="336" y="-12"/>
			<point x="410" y="76"/>
			<point x="410" y="190" type="curve" smooth="yes"/>
			<point x="410" y="266"/>
			<point x="364" y="312"/>
			<point x="302" y="312" type="curve" smooth="yes"/>
			<point x="206" y="312"/>
			<point x="132" y="224"/>
			<point x="132" y="110" type="curve" smooth="yes"/>
			<point x="132" y="34"/>
			<point x="178" y="-12"/>
		</contour>
		<contour>
			<point x="246" y="14" type="curve" smooth="yes"/>
			<point x="194" y="14"/>
			<point x="162" y="50"/>
			<point x="162" y="116" type="curve" smooth="yes"/>
			<point x="162" y="212"/>
			<point x="226" y="286"/>
			<point x="296" y="286" type="curve" smooth="yes"/>
			<point x="348" y="286"/>
			<point x="380" y="250"/>
			<point x="380" y="184" type="curve" smooth="yes"/>
			<point x="380" y="88"/>
			<point x="316" y="14"/>
		</contour>
	</outline>
</glyph>
<glyph name="zero.onum" format="2">
	<advance width="600"/>
	<outline>
		<contour>
			<point x="254" y="-12" type="curve" smooth="yes"/>
			<point x="418" y="-12"/>
			<point x="521" y="148"/>
			<point x="521" y="358" type="curve" smooth="yes"/>
			<point x="521" y="497"/>
			<point x="448" y="582"/>
			<point x="336" y="582" type="curve" smooth="yes"/>
			<point x="166" y="582"/>
			<point x="69" y="410"/>
			<point x="68" y="215" type="curve" smooth="yes"/>
			<point x="67" y="63"/>
			<point x="147" y="-12"/>
		</contour>
		<contour>
			<point x="259" y="16" type="curve" smooth="yes"/>
			<point x="161" y="16"/>
			<point x="98" y="84"/>
			<point x="98" y="217" type="curve" smooth="yes"/>
			<point x="98" y="396"/>
			<point x="190" y="556"/>
			<point x="333" y="556" type="curve" smooth="yes"/>
			<point x="430" y="556"/>
			<point x="491" y="484"/>
			<point x="491" y="351" type="curve" smooth="yes"/>
			<point x="491" y="159"/>
			<point x="389" y="16"/>
		</contour>
		<contour>
			<point x="287" y="238" type="curve" smooth="yes"/>
			<point x="320" y="238"/>
			<point x="348" y="266"/>
			<point x="348" y="306" type="curve" smooth="yes"/>
			<point x="348" y="341"/>
			<point x="330" y="358"/>
			<point x="303" y="358" type="curve" smooth="yes"/>
			<point x="269" y="358"/>
			<point x="242" y="325"/>
			<point x="242" y="289" type="curve" smooth="yes"/>
			<point x="242" y="256"/>
			<point x="259" y="238"/>
		</contour>
	</outline>
</glyph>
